<svg xmlns="http://www.w3.org/2000/svg" version="1.1" xmlns:xlink="http://www.w3.org/1999/xlink" xmlns:svgjs="http://svgjs.com/svgjs" width="1000" height="1000"><rect width="1000" height="1000" rx="200" ry="200" fill="#ffffff"></rect><g transform="matrix(1,0,0,1,0,0)"><svg xmlns="http://www.w3.org/2000/svg" version="1.1" xmlns:xlink="http://www.w3.org/1999/xlink" xmlns:svgjs="http://svgjs.com/svgjs" width="768.000000pt" height="768.000000pt"><svg xmlns="http://www.w3.org/2000/svg" version="1.1" xmlns:xlink="http://www.w3.org/1999/xlink" xmlns:svgjs="http://svgjs.com/svgjs" width="768.000000pt" height="768.000000pt"><svg version="1.0" xmlns="http://www.w3.org/2000/svg" width="768.000000pt" height="768.000000pt" viewBox="0 0 768.000000 768.000000" preserveAspectRatio="xMidYMid meet">

<g transform="translate(0.000000,768.000000) scale(0.100000,-0.100000)" fill="#569450" stroke="none">
<path d="M3869 6913 c-11 -27 -23 -60 -26 -75 -7 -35 -13 -35 -49 3 -31 33
-80 62 -94 57 -5 -2 7 -28 27 -58 40 -62 87 -159 81 -166 -3 -2 -28 7 -56 21
-57 27 -87 32 -79 13 2 -7 19 -64 38 -127 29 -102 31 -115 17 -125 -9 -6 -36
-25 -61 -42 -65 -46 -169 -173 -210 -257 -93 -188 -70 -438 53 -571 72 -78
172 -114 245 -86 19 7 42 5 85 -7 56 -15 63 -15 117 1 45 14 64 15 86 7 101
-39 241 46 307 185 115 245 19 555 -226 730 -37 27 -64 53 -64 63 0 10 16 67
35 127 19 60 35 110 35 112 0 8 -42 -1 -79 -18 -24 -11 -46 -18 -50 -15 -5 6
36 91 81 167 12 21 19 40 16 44 -11 11 -66 -25 -101 -67 l-36 -41 -11 43 c-6
24 -13 53 -16 64 -8 32 -27 65 -36 65 -5 0 -18 -21 -29 -47z m33 -245 c-6 -33
-14 -63 -17 -66 -22 -22 -25 93 -4 156 l13 37 10 -33 c6 -23 6 -53 -2 -94z
m-93 -107 c8 -18 9 -36 3 -52 -9 -23 -10 -23 -26 16 -10 22 -20 54 -23 70 -6
30 -6 30 15 12 11 -10 25 -31 31 -46z m185 -12 c-14 -28 -28 -49 -30 -46 -8 8
40 97 52 97 3 0 -7 -23 -22 -51z m-164 -139 c13 -9 11 -13 -10 -30 -31 -24
-44 -25 -61 -4 -24 29 35 57 71 34z m180 -9 c0 -19 -22 -23 -38 -7 -15 15 -14
16 11 16 15 0 27 -4 27 -9z m-83 -54 l20 -23 -28 -34 c-27 -32 -28 -33 -53
-16 -34 22 -33 39 5 70 17 14 32 26 33 26 1 0 11 -10 23 -23z m-199 -19 c15
-26 15 -28 -14 -57 l-30 -31 -30 31 -29 30 33 30 c38 34 47 34 70 -3z m-114
-100 c21 -30 20 -47 -6 -75 -26 -28 -36 -29 -54 -5 -19 24 -17 39 7 73 25 35
33 36 53 7z m209 -4 c22 -29 16 -54 -12 -54 -11 0 -21 -9 -25 -22 -5 -23 -6
-23 -38 9 l-32 33 29 30 c35 36 54 37 78 4z m215 6 c10 -17 10 -26 -3 -50 -22
-42 -34 -46 -62 -18 l-24 25 26 31 c31 37 45 40 63 12z m-342 -107 c4 -10 8
-21 8 -25 1 -4 10 -14 21 -23 20 -15 20 -15 1 -30 -11 -8 -22 -12 -25 -9 -3 3
1 9 9 14 12 8 11 10 -7 10 -17 0 -22 -7 -25 -31 l-3 -30 -32 33 -33 34 31 37
c34 41 43 45 55 20z m231 -15 c30 -28 29 -41 -2 -58 -14 -7 -25 -19 -25 -27 0
-7 -3 -13 -7 -13 -11 0 -53 43 -53 54 0 10 50 66 59 66 2 0 15 -10 28 -22z
m-397 -35 c0 -7 -14 -27 -31 -45 l-31 -33 7 44 c3 24 11 53 17 64 10 20 11 20
24 2 8 -10 14 -25 14 -32z m610 40 c0 -14 -40 -73 -49 -73 -21 0 -17 27 7 53
25 26 42 34 42 20z m-290 -175 c0 -4 -7 -5 -15 -2 -19 8 -46 -14 -44 -35 1 -9
1 -20 0 -25 -1 -11 -71 54 -71 66 0 4 14 24 32 44 l32 36 32 -39 c18 -21 33
-41 34 -45z m-260 57 c7 -8 10 -22 6 -30 -4 -10 1 -15 14 -15 28 0 25 -10 -11
-45 l-32 -29 -23 29 c-29 36 -29 40 -3 76 23 33 31 35 49 14z m452 -9 c9 -22
7 -29 -20 -56 l-31 -31 -22 22 -21 21 33 34 c39 41 46 42 61 10z m-5 -91 c-4
-8 -11 -15 -17 -15 -7 0 -7 6 0 21 13 23 26 19 17 -6z m-540 -32 c20 -35 20
-40 6 -67 l-15 -29 -14 32 c-15 36 -19 101 -6 101 5 0 18 -17 29 -37z m243
-55 c0 -12 -28 -10 -35 2 -3 6 -15 10 -26 10 -22 0 -27 -38 -7 -58 7 -7 8 -12
3 -12 -12 0 -65 52 -65 64 0 5 14 25 32 43 l31 32 33 -37 c18 -20 33 -40 34
-44z m220 10 c0 -4 -10 -8 -22 -10 -15 -2 -24 -11 -26 -25 -2 -13 -8 -23 -14
-23 -13 0 -58 42 -58 55 0 6 14 25 31 43 l31 33 29 -33 c15 -18 28 -36 29 -40z
m160 26 c-11 -13 -11 -17 0 -24 15 -10 5 -43 -12 -38 -6 2 -16 12 -22 21 -8
12 -5 22 14 42 25 27 42 27 20 -1z m-531 -182 l-29 -24 -20 24 c-25 30 -25 39
1 72 l21 27 28 -37 27 -37 -28 -25z m231 66 c18 -24 19 -30 6 -25 -12 5 -19 0
-25 -16 -5 -13 -16 -29 -24 -36 -13 -10 -19 -9 -36 8 -26 26 -26 27 5 68 31
41 44 41 74 1z m217 16 c8 -22 -52 -83 -68 -67 -8 8 -4 20 17 47 32 40 42 44
51 20z m-147 -144 c-32 -28 -38 -25 -10 5 13 14 26 23 28 20 3 -3 -5 -14 -18
-25z m-205 9 c9 -13 7 -15 -30 -23 -29 -7 -29 -7 -11 13 21 23 32 26 41 10z"></path>
<path d="M3560 5696 c0 -2 8 -10 18 -17 15 -13 16 -12 3 4 -13 16 -21 21 -21
13z"></path>
<path d="M3317 6883 c-11 -10 -8 -49 5 -78 11 -25 84 -77 125 -89 11 -4 27
-14 35 -23 11 -15 11 -16 -7 -9 -46 19 -83 23 -116 12 -26 -9 -34 -16 -34 -36
0 -32 48 -47 108 -34 23 6 53 7 67 4 24 -6 24 -6 -8 -19 -32 -13 -62 -55 -62
-85 0 -38 81 -23 104 19 6 11 12 22 14 24 1 3 15 -8 32 -24 17 -17 35 -25 44
-22 24 9 20 17 -38 82 l-54 60 28 8 c37 9 70 52 70 88 0 34 -22 38 -58 13
l-22 -15 0 60 c0 34 -4 61 -9 61 -23 0 -62 -46 -74 -87 l-13 -45 -21 50 c-21
49 -46 73 -89 86 -11 3 -23 3 -27 -1z"></path>
<path d="M4411 6864 c-17 -14 -41 -49 -53 -77 l-22 -51 -11 54 c-7 39 -17 58
-37 73 -40 30 -51 15 -44 -56 l7 -59 -27 21 c-37 29 -54 27 -54 -8 0 -35 32
-77 66 -85 l25 -7 -50 -55 c-28 -31 -51 -62 -51 -69 0 -27 22 -27 52 1 29 29
30 29 44 9 35 -48 46 -56 72 -53 56 6 32 89 -30 102 -30 6 -31 8 -16 20 13 10
32 11 70 5 64 -11 111 -3 133 21 19 21 8 33 -48 48 -40 11 -87 3 -115 -20 -13
-11 -14 -11 -10 2 2 8 33 31 68 50 73 40 101 73 103 121 2 28 -2 35 -19 37
-12 2 -35 -9 -53 -24z"></path>
<path d="M2995 6729 c-51 -19 -94 -58 -120 -109 -24 -47 -25 -58 -25 -227 0
-205 9 -235 86 -298 42 -35 44 -39 44 -90 0 -39 -5 -58 -17 -67 -56 -44 -103
-101 -113 -138 -17 -62 -2 -480 17 -487 8 -3 17 -2 21 2 4 3 9 111 12 238 5
222 6 234 29 270 12 21 41 47 62 58 l39 19 0 114 c0 110 -1 114 -23 120 -12 3
-38 21 -57 41 l-35 36 -3 169 c-3 150 -2 173 16 213 35 78 140 109 202 59 25
-20 18 -52 -11 -52 -10 0 -19 -6 -20 -12 0 -7 0 -95 1 -196 1 -170 0 -184 -19
-209 l-21 -26 0 32 c0 17 5 31 10 31 6 0 10 67 10 180 0 178 0 181 -22 189
-18 7 -25 4 -30 -10 -8 -21 -24 -25 -30 -7 -2 6 -12 9 -21 5 -15 -6 -17 -26
-17 -170 0 -135 3 -167 15 -177 9 -7 18 -10 22 -7 3 4 5 79 4 168 -1 126 1
160 11 157 10 -4 14 -44 15 -156 2 -112 8 -174 23 -236 12 -53 20 -118 20
-175 0 -72 3 -93 15 -97 8 -4 15 -12 15 -19 0 -7 6 -16 13 -18 6 -3 2 -6 -10
-6 -31 -1 -40 -21 -9 -21 31 0 64 -40 71 -89 3 -20 12 -49 20 -66 8 -16 17
-75 20 -130 9 -127 27 -227 42 -232 20 -7 24 52 21 292 l-3 230 -27 38 c-14
22 -42 50 -62 63 -34 23 -36 28 -36 79 0 52 2 56 54 107 36 35 58 67 65 93 13
49 15 338 1 384 -14 51 -50 97 -93 121 -44 25 -129 34 -172 19z m183 -318 c2
-84 -1 -141 -7 -145 -6 -4 -10 47 -10 139 -1 80 2 145 6 145 5 0 9 -63 11
-139z"></path>
<path d="M4633 6693 c-30 -27 -60 -78 -82 -138 -22 -64 -53 -264 -54 -355 -1
-83 2 -101 24 -145 16 -31 43 -63 72 -85 l47 -35 0 -63 c0 -56 -2 -64 -23 -73
-46 -21 -69 -87 -47 -129 7 -13 7 -41 0 -87 -53 -359 -59 -428 -36 -488 21
-53 62 -90 116 -105 84 -23 181 38 195 121 8 47 0 190 -21 393 -13 122 -13
140 0 155 38 42 24 112 -28 141 -24 12 -26 19 -26 77 l0 63 49 25 c112 56 142
169 106 405 -26 173 -68 279 -131 326 -46 35 -119 34 -161 -3z m133 -65 c58
-62 94 -189 94 -327 0 -54 -4 -91 -10 -91 -5 0 -10 -5 -10 -11 0 -5 5 -7 12
-3 7 4 8 3 4 -5 -16 -25 -23 2 -30 106 -6 97 -29 217 -54 282 -6 18 -11 -14
-16 -120 -4 -79 -9 -153 -11 -164 -2 -11 -4 -36 -5 -55 -1 -19 -4 -29 -7 -22
-2 6 -9 10 -14 6 -5 -3 -9 1 -9 8 0 9 -3 9 -10 -2 -7 -11 -10 -5 -11 25 l-2
40 -7 -45 c-4 -26 -8 -34 -9 -20 -1 20 -3 22 -11 10 -7 -11 -10 -1 -10 35 0
34 -3 45 -10 35 -12 -20 -16 57 -10 192 4 95 8 109 29 132 34 36 70 34 107 -6z
m4 -883 c6 -3 10 -14 10 -24 0 -16 -9 -19 -66 -20 -37 -1 -70 -4 -75 -7 -5 -3
-12 2 -16 12 -4 11 2 24 18 37 19 15 34 18 72 14 26 -4 52 -9 57 -12z m-107
-141 c-1 -5 -4 -50 -7 -99 -6 -95 -25 -187 -37 -180 -3 3 -10 -10 -15 -28 l-8
-32 -3 34 c-4 30 20 243 34 299 3 15 11 22 22 19 9 -2 15 -7 14 -13z m62 -464
c0 -18 -6 -26 -23 -28 -13 -2 -25 3 -28 12 -10 26 4 48 28 44 17 -2 23 -10 23
-28z"></path>
<path d="M5174 6603 c-12 -55 -11 -55 -43 -38 -48 24 -59 17 -21 -15 l34 -30
-48 0 -48 0 16 -25 c15 -23 15 -25 -4 -35 -11 -6 -20 -17 -20 -24 0 -27 56
-34 121 -14 22 6 41 9 44 7 7 -8 -7 -109 -15 -109 -4 0 -17 9 -30 20 -32 28
-47 12 -34 -36 7 -29 18 -42 47 -57 l38 -19 -2 -99 c-3 -108 -15 -126 -45 -68
-18 37 -35 28 -36 -20 -1 -33 30 -76 63 -86 15 -5 19 -19 21 -78 2 -56 6 -72
18 -72 12 0 15 15 16 69 1 64 3 70 27 83 34 17 47 42 47 87 0 41 -7 44 -42 16
l-25 -19 -6 91 -6 92 40 36 c31 30 39 44 39 72 0 22 -7 41 -20 53 -19 17 -20
17 -20 -1 -1 -16 -29 -67 -30 -53 -1 2 -5 61 -9 130 -5 70 -14 136 -20 148
-16 29 -39 26 -47 -6z"></path>
<path d="M2520 6584 c0 -8 12 -30 26 -49 20 -27 23 -38 15 -54 -6 -11 -11 -38
-11 -61 l0 -42 -34 20 c-31 19 -58 26 -79 23 -14 -2 23 -61 74 -117 28 -31 49
-57 47 -59 -2 -2 -34 7 -71 20 -93 34 -87 5 21 -103 24 -24 41 -46 38 -50 -4
-3 -31 5 -61 17 -30 13 -60 21 -66 19 -12 -4 56 -95 105 -138 41 -37 30 -45
-25 -20 -24 11 -55 20 -68 20 l-23 0 27 -37 c16 -21 48 -59 73 -85 25 -26 43
-50 41 -53 -3 -3 -34 7 -68 21 -35 14 -65 23 -68 20 -9 -9 70 -113 104 -136
56 -39 41 -51 -32 -25 -72 26 -81 21 -44 -30 17 -24 42 -54 54 -65 22 -20 22
-24 9 -56 -19 -44 -18 -118 2 -159 26 -56 90 -73 145 -40 34 22 50 131 28 194
-11 30 -9 35 18 64 38 41 73 92 73 107 0 14 -56 4 -85 -16 -11 -8 -25 -14 -32
-14 -23 0 -13 25 17 43 29 17 57 50 96 111 l18 29 -29 -7 c-16 -4 -47 -16 -69
-27 -62 -30 -63 -23 -5 39 63 66 104 121 96 129 -6 6 -96 -25 -112 -39 -13
-12 -25 -10 -25 5 0 7 14 23 31 37 33 27 99 107 99 121 0 15 -32 10 -79 -11
-57 -26 -65 -17 -21 23 19 17 50 51 68 76 30 43 31 46 13 49 -11 2 -41 -6 -66
-17 -54 -24 -60 -10 -15 34 30 28 90 115 90 128 0 14 -28 7 -75 -18 -26 -14
-48 -24 -49 -23 -1 2 -8 32 -15 67 l-12 64 31 32 c44 45 29 68 -15 25 l-33
-32 -28 31 c-30 34 -44 39 -44 15z m77 -276 c-3 -7 -5 -2 -5 12 0 14 2 19 5
13 2 -7 2 -19 0 -25z m0 -130 c-2 -13 -4 -5 -4 17 -1 22 1 32 4 23 2 -10 2
-28 0 -40z m0 -130 c-2 -13 -4 -5 -4 17 -1 22 1 32 4 23 2 -10 2 -28 0 -40z
m0 -140 c-2 -13 -4 -3 -4 22 0 25 2 35 4 23 2 -13 2 -33 0 -45z m0 -145 c-3
-10 -5 -2 -5 17 0 19 2 27 5 18 2 -10 2 -26 0 -35z m0 -125 c-2 -13 -4 -5 -4
17 -1 22 1 32 4 23 2 -10 2 -28 0 -40z m7 -80 c12 -45 7 -136 -8 -141 -23 -9
-26 2 -26 85 0 60 3 78 14 78 7 0 16 -10 20 -22z"></path>
<path d="M3420 6431 c0 -5 -7 -17 -16 -26 -15 -14 -14 -18 10 -42 l26 -25 20
23 c24 29 24 29 1 57 -20 22 -41 29 -41 13z"></path>
<path d="M4338 6415 c-22 -30 -22 -31 4 -57 15 -15 25 -18 36 -11 31 19 36 39
16 66 -24 33 -34 33 -56 2z"></path>
<path d="M5400 6345 c-19 -23 -8 -50 20 -50 19 0 26 6 28 24 5 35 -26 53 -48
26z"></path>
<path d="M2260 6295 c-14 -17 -5 -51 16 -59 22 -8 54 11 54 32 0 38 -46 56
-70 27z"></path>
<path d="M5033 6284 c-8 -21 13 -42 28 -27 13 13 5 43 -11 43 -6 0 -13 -7 -17
-16z"></path>
<path d="M5445 6209 c-20 -38 -14 -86 16 -118 12 -12 19 -23 18 -24 -2 -1 -17
-9 -34 -17 -36 -18 -73 -86 -57 -102 8 -8 23 -1 52 25 44 41 58 45 67 21 3 -8
12 -13 19 -10 9 4 14 -2 14 -18 0 -18 -9 -27 -44 -40 -65 -25 -81 -71 -47
-135 l18 -34 32 33 c17 18 31 38 32 44 0 6 5 -2 10 -19 11 -37 -8 -68 -54 -91
-43 -22 -42 -20 -24 -48 l16 -24 36 34 c20 19 43 34 50 34 7 0 30 -16 51 -35
38 -37 47 -36 58 2 6 18 0 25 -33 43 -42 21 -61 45 -61 78 0 11 -7 22 -15 26
-16 6 -20 33 -9 60 10 26 24 18 24 -15 0 -22 12 -42 45 -77 51 -54 59 -50 69
30 6 46 9 50 29 43 12 -3 42 -9 67 -11 l45 -5 -24 20 c-13 12 -29 21 -37 21
-7 0 -22 17 -33 38 -26 51 -48 69 -112 90 l-54 19 40 7 c59 11 73 22 86 65 9
32 8 44 -7 80 l-19 43 -29 -23 c-32 -26 -56 -75 -56 -118 0 -26 -17 -40 -51
-41 -3 0 -6 27 -5 59 1 46 -4 66 -20 88 -30 39 -50 40 -69 2z m237 -256 c21
-18 24 -53 6 -53 -22 1 -102 44 -106 58 -6 19 78 16 100 -5z"></path>
<path d="M2066 6115 c-4 -25 -4 -49 -1 -55 4 -6 -13 -10 -44 -10 -27 0 -53 -4
-56 -10 -11 -18 18 -90 52 -130 18 -21 49 -45 68 -51 19 -7 35 -17 35 -22 0
-5 -7 -7 -15 -3 -8 3 -37 8 -65 12 -42 5 -50 4 -50 -9 0 -28 60 -86 101 -98
l39 -12 0 -117 0 -117 -68 -32 c-38 -17 -79 -31 -92 -31 -38 0 -104 37 -123
69 -26 44 -21 66 18 89 57 34 62 103 14 208 -11 24 -23 44 -27 44 -11 0 -75
-69 -97 -105 -26 -43 -25 -108 2 -137 13 -13 26 -39 29 -58 8 -46 39 -91 82
-121 l35 -24 -43 -8 c-62 -13 -110 11 -110 53 0 65 -53 102 -167 115 -61 7
-61 7 -35 -73 10 -33 32 -71 53 -94 34 -36 39 -38 100 -39 35 0 93 -1 129 -2
76 -1 189 33 315 95 105 52 219 129 223 151 7 34 -26 28 -97 -18 -39 -25 -76
-43 -81 -40 -6 3 -10 47 -10 96 l0 90 48 20 c45 20 84 57 99 95 6 15 1 17 -48
11 -30 -3 -62 -8 -71 -12 -11 -4 -18 -3 -18 4 0 6 6 11 13 11 23 0 93 56 115
92 11 18 23 50 27 71 l7 37 -51 0 -51 0 0 39 c0 53 -8 71 -32 71 -13 0 -26
-15 -42 -49 l-23 -50 -20 50 c-15 35 -27 49 -41 49 -16 0 -21 -9 -26 -45z m30
-146 c19 -22 19 -22 -3 -10 -24 12 -39 31 -25 31 5 0 17 -10 28 -21z m141 1
c-14 -11 -29 -20 -33 -20 -4 0 1 9 11 20 10 11 25 20 33 20 9 0 6 -7 -11 -20z
m-387 -257 c0 -13 -4 -23 -8 -23 -5 0 -15 -11 -22 -25 -16 -30 -27 -32 -35 -5
-6 20 6 52 33 83 18 20 32 7 32 -30z m-189 -229 c14 -13 15 -20 6 -45 -6 -16
-15 -29 -19 -29 -10 0 -48 61 -48 78 0 17 40 15 61 -4z"></path>
<path d="M5277 6103 c-12 -11 -8 -23 8 -23 8 0 15 7 15 15 0 16 -12 20 -23 8z"></path>
<path d="M4997 5963 c-3 -5 -8 -29 -11 -55 -4 -27 -11 -48 -16 -48 -5 0 -18
12 -29 26 -22 28 -41 25 -41 -7 0 -34 28 -76 59 -89 26 -11 30 -18 33 -58 2
-35 7 -48 21 -50 14 -3 17 4 17 39 0 36 5 47 40 79 33 30 40 44 40 73 0 44 -5
46 -32 12 -27 -34 -38 -31 -38 11 0 51 -27 94 -43 67z"></path>
<path d="M5854 5798 c-23 -11 -44 -48 -44 -77 0 -10 -16 -31 -36 -46 -38 -29
-73 -93 -74 -133 0 -35 36 -97 76 -130 20 -17 34 -35 30 -40 -3 -6 -1 -23 6
-39 6 -15 10 -32 9 -36 -3 -15 20 -47 34 -47 8 0 15 -9 15 -19 0 -20 17 -31
38 -24 6 3 12 13 12 24 0 10 5 19 10 19 14 0 50 85 50 116 0 16 12 35 30 51
41 34 60 73 60 124 0 51 -35 116 -72 135 -23 12 -28 21 -28 54 0 62 -58 97
-116 68z m56 -53 c0 -19 -28 -38 -45 -31 -19 7 -19 20 0 40 17 17 45 11 45 -9z
m-31 -104 c11 -7 11 -13 1 -32 -7 -13 -19 -28 -26 -32 -8 -4 -14 -17 -14 -29
0 -17 -3 -18 -14 -9 -12 10 -14 8 -10 -11 2 -13 2 -17 -2 -10 -12 24 -23 11
-18 -20 l6 -33 -23 23 c-37 35 -33 96 9 133 32 29 65 36 91 20z m21 -45 c0 -3
-4 -8 -10 -11 -5 -3 -10 -1 -10 4 0 6 5 11 10 11 6 0 10 -2 10 -4z m120 -56
c0 -9 -6 -24 -13 -33 -10 -15 -12 -10 -12 33 0 43 2 48 13 33 6 -9 12 -24 12
-33z m-155 11 c3 -5 1 -12 -5 -16 -5 -3 -10 1 -10 9 0 18 6 21 15 7z m15 -201
c0 -21 -15 -27 -25 -10 -7 12 2 30 16 30 5 0 9 -9 9 -20z"></path>
<path d="M2974 5703 c-15 -16 -16 -33 -10 -168 8 -187 21 -263 43 -242 10 11
22 112 29 263 7 137 6 142 -14 153 -27 14 -27 14 -48 -6z"></path>
<path d="M3091 5701 c-12 -8 -13 -36 -3 -183 17 -263 43 -303 61 -93 19 228
20 255 4 270 -16 17 -41 19 -62 6z"></path>
<path d="M5242 5694 c-26 -18 -52 -65 -52 -93 0 -11 -14 -41 -32 -66 -29 -41
-35 -45 -73 -45 -55 0 -75 -22 -75 -83 0 -45 -1 -47 -29 -47 -64 0 -61 12 -61
-261 l0 -249 -60 0 -60 0 0 -30 0 -30 476 0 475 0 -3 28 c-3 23 -8 27 -40 30
l-38 3 0 243 c0 175 -3 245 -12 254 -7 7 -27 12 -45 12 l-33 0 0 53 c0 29 -5
58 -12 65 -7 7 -34 12 -60 12 -26 0 -48 4 -48 8 0 5 -16 27 -35 49 -25 29 -35
51 -35 75 0 18 -6 40 -13 49 -30 39 -96 51 -135 23z m88 -49 c19 -23 5 -42
-34 -43 -43 -2 -60 23 -31 44 25 18 50 18 65 -1z m23 -115 c27 -22 40 -49 41
-90 1 -21 7 -26 34 -28 32 -3 41 -15 22 -27 -5 -3 -10 -15 -10 -26 0 -18 -8
-19 -170 -19 -93 0 -173 -1 -177 -2 -5 -2 -9 15 -11 36 -4 47 7 56 71 56 47 0
47 0 47 34 0 19 9 45 21 60 26 34 93 37 132 6z m-343 -460 c0 -199 -6 -251
-24 -204 -8 21 -8 409 1 417 19 20 23 -12 23 -213z m343 200 c99 0 107 -1 107
-19 0 -34 -28 -51 -81 -51 -47 0 -50 -2 -47 -22 3 -21 10 -23 83 -29 l80 -5
-75 -2 c-83 -3 -104 -10 -98 -38 3 -16 14 -19 71 -22 66 -3 77 -10 59 -39 -5
-8 -64 -12 -185 -15 l-178 -3 -6 23 c-9 38 8 44 111 40 94 -3 96 -2 96 20 0
21 -3 22 -105 22 -87 0 -105 3 -105 15 0 12 17 15 90 15 65 0 90 3 90 13 0 8
3 9 8 1 4 -6 17 -13 30 -17 19 -4 23 -2 20 16 -3 21 -9 22 -120 25 l-118 3 0
41 0 41 83 -6 c45 -4 130 -7 190 -7z m257 -200 c0 -180 -2 -210 -15 -210 -13
0 -15 30 -15 210 0 180 2 210 15 210 13 0 15 -30 15 -210z m-195 -114 c11 -2
-60 -4 -158 -5 -98 0 -176 3 -173 7 4 7 283 5 331 -2z"></path>
<path d="M5267 5507 c-23 -16 -27 -66 -6 -80 47 -30 101 32 64 73 -21 23 -35
25 -58 7z"></path>
<path d="M4937 5586 c-9 -22 18 -40 33 -22 6 9 9 20 5 26 -9 15 -32 12 -38 -4z"></path>
<path d="M5553 5584 c-8 -21 13 -42 28 -27 13 13 5 43 -11 43 -6 0 -13 -7 -17
-16z"></path>
<path d="M4425 5541 c-8 -15 3 -31 21 -31 9 0 14 7 12 17 -4 20 -24 28 -33 14z"></path>
<path d="M3360 5525 c0 -9 5 -15 11 -13 6 2 11 8 11 13 0 5 -5 11 -11 13 -6 2
-11 -4 -11 -13z"></path>
<path d="M4337 5439 l-28 -32 21 -19 c11 -10 20 -23 20 -28 0 -19 22 -10 52
21 25 25 29 33 17 40 -8 5 -17 9 -20 9 -4 0 -9 9 -12 20 -7 28 -18 25 -50 -11z"></path>
<path d="M2328 5431 c-11 -21 -29 -33 -57 -41 -62 -16 -55 -40 12 -40 78 0
116 34 96 88 -11 30 -31 27 -51 -7z"></path>
<path d="M3403 5434 c-13 -14 -23 -27 -23 -29 0 -7 47 -55 54 -55 4 0 21 14
38 31 25 25 29 33 17 40 -8 5 -17 9 -21 9 -5 0 -8 7 -8 15 0 24 -33 17 -57
-11z"></path>
<path d="M3790 5370 c-30 -11 -74 -20 -98 -20 -53 0 -94 -20 -122 -60 -12 -17
-45 -42 -73 -56 -97 -48 -157 -125 -157 -199 0 -17 -12 -54 -27 -81 -34 -64
-36 -135 -5 -186 15 -24 22 -51 22 -87 0 -90 35 -149 117 -197 24 -13 49 -37
57 -52 19 -35 83 -100 115 -116 14 -7 53 -16 86 -19 37 -3 79 -15 109 -31 62
-33 108 -33 171 0 33 18 70 28 115 32 36 2 77 11 92 19 27 13 108 106 108 123
0 5 20 23 45 40 86 59 115 108 115 192 0 32 8 65 25 98 15 30 25 66 25 92 0
27 -10 61 -25 90 -14 26 -25 60 -25 76 0 78 -53 149 -149 201 -31 17 -74 48
-95 71 -21 22 -48 42 -60 44 -12 3 -59 12 -106 22 -128 25 -196 27 -260 4z
m192 -61 c73 -16 145 -53 196 -103 41 -39 96 -138 120 -216 13 -45 23 -128 13
-111 -6 10 -10 8 -15 -5 -5 -12 -10 -14 -14 -8 -4 6 -24 17 -45 24 -30 9 -37
16 -31 29 23 55 34 96 29 110 -5 12 -10 10 -29 -12 -13 -15 -29 -27 -35 -27
-6 0 -14 -6 -17 -14 -3 -8 -12 -17 -20 -20 -10 -4 -6 10 11 42 32 60 33 88 3
86 -25 -2 -53 -10 -80 -24 -14 -8 -15 -5 -7 23 19 65 3 121 -27 96 -7 -6 -29
-19 -48 -28 l-35 -18 -20 48 c-11 27 -26 49 -34 49 -8 0 -22 -20 -33 -45 -10
-25 -22 -45 -26 -45 -5 0 -26 9 -48 20 -60 30 -63 28 -58 -43 l4 -63 -36 12
c-37 14 -90 18 -90 8 0 -4 14 -31 31 -61 17 -30 29 -56 26 -59 -8 -8 -67 47
-67 62 0 17 -27 19 -33 2 -6 -18 11 -59 34 -84 19 -20 19 -20 -26 -42 -25 -12
-45 -28 -45 -37 0 -8 20 -24 45 -35 l46 -21 -26 -30 c-26 -32 -34 -79 -13 -79
7 0 24 12 40 27 15 14 30 24 32 22 3 -3 -2 -29 -10 -58 -9 -29 -13 -55 -10
-58 5 -5 56 8 92 23 7 3 9 -15 6 -56 -4 -54 -2 -60 14 -60 11 1 30 7 44 15 39
22 56 18 74 -19 9 -19 16 -37 16 -40 0 -3 -25 -6 -55 -6 -80 0 -199 62 -276
142 -79 83 -110 246 -71 363 63 184 188 301 347 324 86 12 98 12 157 0z m-517
-202 c-14 -25 -37 -74 -50 -108 -42 -107 -29 -270 31 -378 29 -53 29 -55 4
-41 -43 23 -50 46 -79 234 -10 63 12 213 38 265 17 33 70 85 79 77 1 -2 -9
-24 -23 -49z m899 10 c18 -27 46 -132 45 -167 0 -15 -6 -5 -15 28 -15 56 -35
100 -65 144 -11 14 -19 29 -19 32 0 13 40 -15 54 -37z m-442 -187 c5 0 29 21
54 48 l45 47 -20 -42 c-11 -23 -25 -44 -31 -48 -26 -16 -7 -27 41 -23 54 6 54
-2 -1 -30 -19 -9 -35 -22 -37 -28 -2 -6 19 -21 47 -34 63 -30 72 -41 22 -29
-82 19 -89 9 -42 -61 42 -63 27 -64 -27 -2 -24 28 -49 52 -54 52 -5 0 -9 -29
-9 -65 0 -37 -4 -65 -10 -65 -5 0 -11 10 -11 23 -1 12 -3 37 -3 56 -1 19 -8
37 -14 39 -7 2 -35 -20 -63 -50 l-50 -53 35 58 c20 31 36 62 36 68 0 12 -64 8
-105 -5 -11 -4 8 8 43 26 34 18 62 36 62 40 0 3 -23 19 -50 34 -28 15 -48 29
-46 31 2 2 23 -1 46 -7 58 -16 70 -2 37 42 -56 75 -60 94 -9 41 28 -29 55 -53
60 -53 10 0 21 43 24 94 0 17 5 2 11 -36 6 -38 14 -68 19 -68z m339 -122 c4
-83 -11 -97 -49 -45 l-31 44 32 11 c46 14 47 14 48 -10z m-219 -295 c-3 -11
-52 -17 -88 -12 -4 0 -11 -5 -15 -13 -6 -9 -9 -4 -9 15 0 15 5 27 12 27 6 0 8
3 5 7 -4 3 -2 12 4 19 8 10 19 8 53 -9 24 -13 41 -27 38 -34z"></path>
<path d="M4075 5100 c-3 -6 1 -7 9 -4 18 7 21 14 7 14 -6 0 -13 -4 -16 -10z"></path>
<path d="M6153 5349 c-17 -11 -44 -45 -61 -77 -17 -31 -40 -63 -52 -70 -12 -7
-26 -26 -31 -41 -7 -19 -19 -31 -37 -34 -84 -17 -162 -124 -162 -222 1 -197
253 -314 425 -196 82 55 122 170 96 269 -15 54 -73 119 -128 144 -26 11 -43
26 -43 35 0 9 -10 27 -22 40 -21 22 -21 24 -4 61 10 21 31 46 47 56 16 9 29
23 29 30 0 23 -25 25 -57 5z m-65 -200 c-3 -38 -15 -46 -36 -25 -16 16 -15 19
7 37 30 25 32 24 29 -12z m-71 -86 c7 -19 28 -43 37 -43 3 0 16 -11 30 -25 26
-26 42 -75 25 -75 -5 0 -8 -3 -6 -7 3 -11 -40 -53 -47 -45 -3 3 -6 1 -6 -5 0
-5 -20 -9 -45 -9 -30 1 -45 5 -45 14 0 7 -4 10 -10 7 -5 -3 -10 0 -10 7 -1 16
-30 -21 -30 -38 0 -6 11 -28 25 -48 13 -20 21 -36 17 -36 -17 0 -55 45 -74 88
-35 79 -2 177 72 214 44 23 59 23 67 1z m253 -98 c0 -5 -5 -3 -10 5 -5 8 -10
20 -10 25 0 6 5 3 10 -5 5 -8 10 -19 10 -25z"></path>
<path d="M2595 5271 c-28 -10 -62 -24 -75 -32 -17 -9 -73 -15 -172 -17 l-148
-4 -59 31 c-79 41 -158 43 -213 6 -34 -23 -45 -24 -248 -31 -213 -7 -213 -7
-243 -34 -37 -32 -40 -82 -7 -114 19 -20 33 -21 233 -24 206 -3 213 -4 237
-26 39 -37 65 -46 127 -46 49 0 67 6 116 36 l59 36 137 -4 c132 -5 138 -6 206
-40 101 -51 177 -65 248 -44 179 52 200 241 35 311 -51 21 -170 19 -233 -4z
m209 -56 c36 -17 77 -76 58 -83 -7 -2 -18 -10 -25 -17 -38 -37 -143 -37 -257
2 -8 2 -109 6 -225 7 -204 2 -213 1 -304 -26 -88 -26 -95 -27 -113 -12 -30 28
-24 78 14 109 28 24 39 27 84 23 38 -3 61 -12 85 -32 l33 -28 175 5 c169 4
179 5 251 35 85 36 171 42 224 17z m-934 -70 c0 -11 -365 -24 -382 -14 -6 4
-7 12 -4 18 10 15 386 11 386 -4z"></path>
<path d="M3073 5173 c3 -32 9 -74 12 -93 6 -30 2 -39 -24 -64 -22 -21 -31 -39
-31 -62 0 -34 30 -79 59 -89 26 -8 45 -49 37 -80 -6 -23 -10 -25 -40 -20 -25
5 -35 3 -39 -9 -25 -65 95 -77 133 -13 34 55 27 94 -25 144 -50 48 -54 64 -25
108 24 36 25 72 5 111 -8 16 -15 50 -15 77 0 44 -2 47 -26 47 -25 0 -26 -1
-21 -57z"></path>
<path d="M3212 5221 c-8 -4 -12 -19 -10 -32 2 -18 9 -24 28 -24 19 0 26 6 28
24 3 20 -11 41 -28 41 -3 0 -11 -4 -18 -9z"></path>
<path d="M3202 5057 c-15 -17 1 -42 23 -33 18 6 17 37 -1 43 -6 2 -16 -2 -22
-10z"></path>
<path d="M2294 4946 c-26 -20 -11 -42 40 -56 54 -15 64 -9 46 25 -17 32 -62
48 -86 31z"></path>
<path d="M1563 4916 c-17 -8 -39 -26 -48 -40 -15 -22 -25 -26 -66 -26 -40 0
-53 -5 -74 -27 -23 -26 -25 -35 -25 -119 0 -79 3 -95 22 -119 55 -70 149 -64
199 12 l19 28 0 -55 c0 -30 3 -71 6 -90 4 -26 1 -41 -13 -57 -26 -31 -71 -21
-85 19 -14 38 -51 36 -56 -3 -2 -20 -10 -28 -31 -32 -37 -8 -89 -63 -103 -109
-21 -71 31 -163 108 -188 26 -9 34 -17 34 -35 0 -67 36 -75 46 -10 4 29 11 45
21 45 7 0 27 9 42 21 l29 21 41 -28 c39 -25 42 -30 39 -66 -3 -38 -5 -40 -54
-57 -108 -36 -192 -124 -229 -239 -25 -77 -17 -200 18 -267 29 -57 79 -112
111 -124 11 -5 152 -9 312 -10 325 -1 372 6 453 61 25 18 89 60 141 95 52 34
102 68 110 75 8 7 21 12 28 10 7 -2 19 2 26 7 15 12 191 71 212 71 20 0 29 45
29 136 -1 71 -5 89 -33 147 -55 112 -161 186 -289 204 -38 5 -48 12 -68 43
-40 63 -119 119 -192 135 -31 6 -33 9 -33 51 0 24 4 44 9 44 21 0 71 54 79 83
6 24 16 34 41 41 18 5 46 22 62 37 52 49 35 145 -32 173 -15 6 -39 27 -51 46
-14 20 -38 40 -56 46 -18 5 -39 20 -48 32 -21 31 -69 30 -89 -2 -9 -13 -29
-26 -46 -30 -17 -3 -44 -19 -60 -35 -51 -51 -35 -146 32 -185 26 -15 27 -19
22 -71 -5 -49 -3 -58 22 -90 15 -20 38 -40 51 -45 20 -8 24 -17 24 -49 l0 -40
-57 -16 c-140 -40 -227 -147 -228 -282 0 -59 -2 -64 -20 -60 -18 4 -101 25
-132 33 -18 5 -17 84 0 84 7 0 32 16 54 35 125 107 69 276 -92 279 l-50 1 -3
113 c-2 72 1 112 8 112 5 0 10 -7 10 -16 0 -26 31 -71 57 -83 48 -22 99 -14
137 23 l36 33 0 96 0 95 -37 32 c-31 28 -41 31 -74 26 -35 -6 -42 -3 -71 30
-39 41 -94 53 -145 30z m80 -47 c32 -14 54 -59 35 -70 -7 -5 -16 -3 -20 4 -10
16 -43 -5 -42 -27 1 -11 -6 -16 -22 -16 -17 0 -22 4 -18 15 4 8 1 15 -5 15 -6
0 -11 -5 -11 -11 0 -5 -4 -7 -10 -4 -5 3 -10 19 -10 36 0 22 8 34 33 49 37 23
39 23 70 9z m533 -26 c-10 -10 -19 5 -10 18 6 11 8 11 12 0 2 -7 1 -15 -2 -18z
m-38 -44 c12 -18 9 -25 -27 -64 -37 -40 -41 -42 -55 -26 -21 23 -20 70 1 93
22 24 65 23 81 -3z m126 -1 c8 -13 6 -22 -8 -37 -11 -12 -25 -21 -32 -21 -16
0 -29 43 -20 66 8 20 45 15 60 -8z m-797 -13 c2 -6 -13 -15 -32 -21 -26 -8
-35 -8 -35 0 0 30 58 48 67 21z m361 3 c7 -7 12 -19 12 -27 0 -12 -3 -12 -12
-3 -7 7 -22 12 -35 12 -14 0 -23 6 -23 15 0 18 41 20 58 3z m-343 -78 c3 -5 1
-10 -4 -10 -8 0 -7 -6 1 -19 14 -23 -6 -55 -30 -46 -10 4 -13 0 -9 -15 7 -26
-1 -25 -30 2 -28 26 -29 38 -2 72 21 26 62 35 74 16z m323 -6 c27 -19 29 -44
3 -44 -26 0 -66 34 -57 48 10 16 27 15 54 -4z m561 2 c6 -7 9 -21 5 -30 -8
-22 -44 -2 -44 24 0 23 22 26 39 6z m-151 -119 c8 -16 11 -32 7 -35 -4 -4 -10
-1 -12 6 -12 33 -52 -8 -45 -45 5 -26 -28 -12 -43 17 -16 31 -8 64 19 83 23
15 61 2 74 -26z m-688 -247 c24 -24 25 -32 5 -70 -19 -37 -52 -60 -85 -60 -14
0 -31 -5 -38 -12 -14 -14 -24 -6 -45 35 -18 34 -11 69 19 102 31 33 113 36
144 5z m234 -5 c27 -25 34 -45 16 -45 -5 0 -10 7 -10 15 0 9 -6 12 -17 8 -11
-4 -14 -3 -9 5 5 8 -1 12 -17 12 -14 0 -30 7 -37 15 -22 27 43 19 74 -10z
m523 -71 c45 -22 100 -80 88 -92 -2 -3 -27 10 -55 27 -49 30 -77 40 -66 23 3
-4 -15 -7 -40 -7 -35 2 -49 -3 -69 -23 -14 -14 -25 -32 -25 -40 0 -8 -3 -13
-6 -9 -8 8 -42 -26 -36 -38 3 -5 -1 -5 -8 2 -15 14 -40 -5 -40 -31 0 -9 -4
-16 -10 -16 -5 0 -7 8 -5 18 3 9 -1 4 -9 -13 -8 -16 -15 -39 -16 -50 0 -16 -2
-17 -10 -5 -6 10 -8 -4 -6 -42 1 -32 9 -66 17 -75 16 -20 51 -93 45 -93 -3 0
-26 34 -52 77 -39 62 -49 86 -52 132 -5 71 10 127 48 179 71 98 200 130 307
76z m307 -174 c76 -34 179 -180 158 -224 -9 -19 -11 -16 -17 21 -8 47 -44 93
-72 92 -10 0 -40 -27 -68 -59 -27 -32 -56 -59 -62 -59 -7 -1 -13 -4 -14 -8 -3
-34 -12 -60 -26 -75 -20 -22 -27 -22 -47 -3 -8 8 -47 28 -88 45 -77 31 -65 41
16 14 26 -9 49 -14 52 -11 6 6 -141 157 -153 157 -14 0 -51 -38 -67 -68 -8
-15 -17 -48 -21 -74 -7 -44 -6 -47 18 -53 13 -4 65 -5 115 -3 49 2 88 0 85 -4
-2 -5 -44 -8 -92 -8 -70 0 -91 -3 -102 -16 -12 -15 -14 -14 -21 7 -4 13 -5 -3
-3 -36 3 -32 14 -77 26 -99 14 -26 16 -36 6 -28 -59 49 -82 254 -38 340 30 59
93 119 154 148 69 32 196 34 261 4z m-826 -129 c9 -5 -7 -10 -43 -14 -90 -9
-164 -57 -140 -91 65 -89 98 -126 115 -126 18 0 18 2 -3 60 -17 45 -19 62 -10
71 9 9 14 2 22 -27 6 -22 11 -49 11 -61 0 -12 4 -24 9 -27 5 -3 12 26 15 64 4
39 12 70 18 70 10 0 9 -21 -8 -132 -4 -29 -2 -38 9 -38 8 0 20 -7 28 -16 9
-11 25 -15 51 -12 21 2 38 0 38 -4 0 -4 17 -9 38 -11 20 -3 3 -3 -39 -1 -42 2
-79 0 -83 -3 -4 -4 12 -18 36 -31 24 -13 34 -20 23 -16 -46 15 -64 15 -91 -2
-29 -18 -29 -18 -11 2 23 27 22 51 -3 59 -27 9 -40 -1 -40 -31 0 -24 -15 -31
-35 -16 -5 4 -10 14 -10 22 0 15 -5 15 -135 20 -20 0 -22 2 -10 10 9 6 45 7
87 4 59 -6 74 -4 78 8 8 20 -119 143 -147 143 -12 0 -30 -12 -41 -27 -22 -29
-38 -110 -26 -130 4 -6 3 -20 -2 -29 -5 -10 -9 -38 -9 -63 0 -35 7 -53 33 -88
22 -28 40 -42 52 -40 27 5 61 33 80 65 9 16 19 26 21 24 3 -3 -9 -26 -26 -53
-24 -39 -29 -55 -24 -82 l7 -34 -65 51 c-49 38 -71 63 -86 99 -23 52 -31 152
-18 212 22 96 120 197 214 219 49 12 104 13 120 2z m116 -125 c-6 -16 -24 -23
-24 -8 0 10 22 33 27 28 2 -2 1 -11 -3 -20z m726 9 c0 -2 -18 -14 -40 -25 -45
-23 -55 -14 -12 12 26 17 52 23 52 13z m-786 -76 c-16 -18 -16 -19 1 -19 17 0
17 -1 0 -20 -10 -11 -23 -20 -29 -20 -6 0 -6 4 1 11 6 6 9 17 6 25 -2 7 4 24
14 38 10 13 20 20 22 14 1 -5 -5 -18 -15 -29z m803 5 c-3 -3 -12 -4 -19 -1 -8
3 -5 6 6 6 11 1 17 -2 13 -5z m-802 -224 c10 -11 16 -20 13 -20 -3 0 -13 9
-23 20 -10 11 -16 20 -13 20 3 0 13 -9 23 -20z"></path>
<path d="M2203 4233 c9 -2 23 -2 30 0 6 3 -1 5 -18 5 -16 0 -22 -2 -12 -5z"></path>
<path d="M2373 4062 c-24 -10 -50 -25 -59 -34 -16 -16 -16 -19 0 -42 32 -49
118 -135 134 -134 10 1 27 -2 40 -6 12 -4 22 -3 22 2 0 5 29 40 65 78 35 38
65 74 65 80 0 15 -27 36 -73 57 -48 22 -139 21 -194 -1z m71 -84 c3 -13 5 -41
5 -63 l-1 -40 -13 40 c-16 47 -18 85 -6 85 5 0 11 -10 15 -22z m61 -62 c-20
-52 -34 -56 -16 -5 6 18 11 46 12 63 0 29 1 29 11 9 8 -16 6 -33 -7 -67z"></path>
<path d="M2500 4885 c0 -8 7 -15 15 -15 8 0 15 7 15 15 0 8 -7 15 -15 15 -8 0
-15 -7 -15 -15z"></path>
<path d="M4592 4853 c-18 -35 9 -69 40 -52 22 12 24 55 2 63 -25 9 -33 7 -42
-11z"></path>
<path d="M2701 4800 c-7 -27 -17 -53 -22 -56 -5 -3 -31 8 -58 25 -48 31 -91
40 -91 20 0 -6 27 -37 61 -69 54 -52 59 -60 50 -79 -10 -18 -9 -21 9 -21 11 0
29 5 39 12 16 10 26 7 58 -14 46 -30 153 -127 153 -138 0 -4 -42 5 -92 20
-125 38 -255 54 -311 39 -73 -19 -119 -83 -85 -117 17 -17 42 -15 93 10 28 14
45 29 45 40 0 14 5 16 22 9 34 -12 31 -24 -12 -49 -72 -41 -121 -133 -74 -140
11 -2 28 6 39 18 l18 20 11 -22 c13 -27 46 -34 76 -18 27 14 59 84 60 126 0
48 17 56 84 39 65 -17 136 -51 136 -65 0 -5 -15 -16 -32 -23 -57 -25 -73 -51
-72 -121 1 -53 14 -90 98 -289 53 -126 96 -233 96 -239 0 -50 93 142 185 384
56 147 58 184 10 237 -19 21 -35 41 -35 44 0 3 15 8 33 12 57 12 67 16 67 30
0 14 -19 21 -69 27 -24 3 -23 5 22 56 26 29 47 59 47 67 0 20 -40 45 -70 45
-41 0 -115 -53 -156 -114 -22 -30 -41 -55 -44 -56 -3 0 -15 15 -28 33 -22 34
-127 140 -172 176 l-25 19 20 22 c23 26 67 50 90 50 26 0 29 -29 5 -55 -12
-13 -19 -28 -15 -34 9 -16 51 -13 69 5 23 22 21 96 -2 117 -25 23 -90 21 -130
-3 -39 -24 -42 -24 -42 -5 0 20 -28 75 -38 75 -5 0 -14 -22 -21 -50z m441
-292 c-28 -28 -59 -66 -69 -85 -9 -18 -21 -33 -25 -33 -28 0 22 90 73 134 64
55 79 43 21 -16z m-535 -140 c-3 -8 -6 -5 -6 6 -1 11 2 17 5 13 3 -3 4 -12 1
-19z m362 -44 c30 -12 44 -13 60 -5 26 14 77 14 104 0 l21 -12 -21 -8 c-12 -4
-34 -26 -48 -48 -25 -40 -26 -41 -73 -35 -26 4 -52 13 -59 21 -10 13 -12 12
-20 -1 -12 -21 -63 -25 -76 -5 -16 25 1 68 36 89 38 24 28 23 76 4z m58 -164
c20 0 32 -4 28 -10 -3 -5 -44 -10 -90 -10 -68 0 -84 3 -89 16 -6 15 1 16 55
10 34 -3 77 -6 96 -6z m-24 -80 c9 0 17 -7 17 -16 0 -12 -10 -14 -52 -12 -43
2 -54 7 -56 22 -4 17 0 18 34 13 22 -4 47 -7 57 -7z m-3 -90 c13 -9 13 -11 0
-20 -21 -14 -44 -8 -48 13 -4 19 23 23 48 7z"></path>
<path d="M4715 4691 c-48 -22 -88 -61 -105 -102 -11 -26 -17 -29 -40 -24 -27
6 -60 -14 -60 -35 0 -15 31 -40 50 -40 15 0 20 -10 25 -45 10 -61 55 -128 107
-159 l44 -26 493 -2 c524 -3 525 -3 500 44 -8 16 -24 18 -124 18 l-115 0 29
41 c55 75 50 175 -12 246 -59 68 -83 73 -343 73 -180 0 -241 3 -274 15 -57 20
-126 19 -175 -4z m151 -51 c90 -56 112 -210 38 -271 -16 -13 -16 -11 1 17 23
40 15 59 -29 78 -21 9 -36 22 -38 36 -2 11 -7 19 -13 18 -5 -2 -8 -7 -6 -13 8
-18 2 -67 -9 -80 -6 -8 -21 -15 -33 -17 -14 -2 -23 -11 -25 -25 -4 -30 29 -46
81 -38 39 5 41 5 23 -10 -28 -21 -104 -19 -143 5 -38 23 -57 50 -73 106 -21
72 21 162 95 202 32 18 95 14 131 -8z m557 -39 c15 -9 36 -30 47 -48 l18 -32
-213 -3 c-126 -2 -218 -7 -224 -13 -6 -6 -7 -16 -1 -25 7 -12 41 -16 157 -20
131 -4 141 -6 84 -12 -35 -5 -108 -8 -161 -8 l-97 0 -5 50 c-3 33 -15 64 -32
88 -24 33 -24 37 -8 44 9 3 105 4 212 1 153 -4 201 -9 223 -22z"></path>
<path d="M4763 4593 c-4 -10 2 -23 16 -35 28 -22 41 -23 67 -3 19 15 19 15 -5
35 -28 24 -69 26 -78 3z"></path>
<path d="M4867 4516 c-10 -26 4 -47 27 -44 15 2 21 10 21 28 0 29 -38 41 -48
16z"></path>
<path d="M4714 4505 c-11 -27 4 -45 36 -45 36 0 37 2 6 34 -27 30 -34 32 -42
11z"></path>
<path d="M5720 4655 c-5 -14 -16 -25 -24 -25 -7 0 -19 -6 -25 -14 -9 -11 -8
-18 4 -30 9 -9 21 -16 26 -16 6 0 15 -13 20 -30 13 -36 35 -39 43 -6 3 14 20
34 36 46 38 27 38 35 -1 49 -17 6 -33 20 -36 31 -7 28 -32 25 -43 -5z"></path>
<path d="M6232 4585 c-63 -19 -111 -55 -133 -98 -15 -29 -24 -37 -37 -31 -62
26 -94 33 -151 34 l-64 0 5 -77 c4 -56 12 -90 29 -121 l23 -43 -33 -26 c-114
-90 -162 -189 -162 -335 0 -49 -4 -78 -10 -78 -24 0 -159 -71 -159 -84 0 -21
37 -62 101 -112 44 -34 77 -50 129 -62 59 -15 70 -21 75 -42 12 -50 55 -101
103 -123 41 -18 65 -21 193 -21 224 1 236 10 142 98 l-56 54 41 21 c57 29 127
105 159 171 21 44 28 74 31 146 2 50 -1 115 -7 143 -10 47 -9 56 11 94 16 31
22 60 22 107 0 99 -41 165 -125 202 -33 15 -35 26 -14 83 8 22 14 57 15 78 l0
37 -42 -1 c-24 0 -62 -6 -86 -14z m68 -56 c-18 -32 -72 -78 -105 -88 -16 -5
-38 -12 -47 -16 -28 -11 -23 28 8 64 24 29 92 59 137 60 15 1 16 -2 7 -20z
m-290 -109 c21 -11 41 -24 44 -29 10 -15 -5 -40 -20 -34 -8 3 -11 9 -8 14 3 5
0 9 -5 9 -6 0 -11 -4 -11 -10 0 -5 -5 -10 -11 -10 -6 0 -9 7 -5 15 3 8 1 15
-4 15 -6 0 -10 -7 -10 -15 0 -8 -6 -14 -12 -12 -13 2 -14 -6 -3 -35 6 -15 4
-16 -19 -5 -19 9 -31 26 -41 61 -8 27 -15 51 -15 53 0 12 88 -1 120 -17z m314
-60 c23 -11 46 -28 53 -39 11 -18 10 -19 -16 -11 -16 4 -38 13 -50 19 -16 9
-21 9 -21 -1 0 -10 -3 -9 -9 1 -8 12 -16 13 -48 3 -129 -39 -154 -40 -122 -6
51 56 140 70 213 34z m-115 -149 c101 -51 183 -168 180 -256 -1 -28 -2 -28
-10 8 -22 93 -93 207 -129 207 -5 0 -10 4 -10 8 0 12 -68 39 -117 47 -55 9
-153 -17 -203 -53 -22 -15 -49 -44 -62 -64 -13 -21 -26 -38 -30 -38 -15 0 -8
-30 7 -30 8 0 15 5 15 10 0 17 83 89 128 111 57 28 158 27 216 -1 135 -65 202
-200 166 -332 -26 -94 -128 -192 -192 -186 l-33 3 45 27 c43 25 73 57 99 106
11 20 10 27 -5 43 -9 10 -25 19 -35 19 -10 0 -21 5 -25 11 -5 8 8 9 45 4 l51
-7 0 37 0 38 -51 -6 c-44 -5 -49 -4 -39 8 7 8 23 15 35 15 60 0 46 62 -27 125
-97 82 -228 72 -311 -25 -46 -54 -48 -83 -7 -100 49 -20 47 -32 -4 -25 l-46 7
0 -31 c0 -30 1 -31 45 -31 54 0 58 -14 10 -30 -39 -13 -44 -32 -19 -68 8 -12
11 -22 5 -22 -5 0 -14 6 -18 13 -4 8 -28 27 -53 42 -63 40 -70 51 -70 117 0
92 32 162 109 239 107 106 212 124 340 60z m-118 -164 c-1 -4 -1 -19 -1 -33 0
-14 -4 -23 -10 -19 -14 8 -13 68 1 63 6 -2 10 -7 10 -11z m-82 -55 c11 -21 31
-44 46 -50 l27 -12 -23 -19 c-14 -11 -20 -24 -16 -35 10 -25 35 -31 56 -12 10
9 20 16 22 16 11 0 79 -98 79 -114 0 -27 -27 -18 -40 13 -6 16 -27 37 -46 47
-32 17 -36 17 -62 3 -15 -9 -34 -31 -42 -48 -8 -17 -19 -31 -23 -31 -15 0 -19
31 -5 48 8 9 23 34 33 54 18 35 18 39 2 70 -9 18 -27 46 -39 61 -19 24 -20 29
-8 37 8 5 16 10 17 10 2 0 11 -17 22 -38z m191 14 c0 -7 -9 -21 -21 -32 -11
-10 -27 -34 -35 -52 -12 -29 -16 -32 -34 -22 -21 11 -28 40 -9 40 13 0 27 15
58 58 22 31 41 35 41 8z m-110 -261 c0 -19 -4 -35 -10 -35 -5 0 -10 16 -10 35
0 19 5 35 10 35 6 0 10 -16 10 -35z m-271 -11 c32 -27 42 -50 17 -41 -18 7
-89 -17 -94 -32 -8 -23 -29 -11 -24 14 5 27 -15 35 -24 10 -8 -20 -34 -18 -64
5 -23 18 -24 20 -9 36 20 19 67 32 126 33 31 1 49 -5 72 -25z m179 -144 c85
-36 173 -89 227 -135 36 -32 32 -52 -4 -22 -9 7 -28 18 -43 25 -25 10 -28 10
-28 -8 0 -28 -20 -25 -46 7 -24 30 -54 26 -54 -8 0 -15 -4 -19 -16 -15 -9 3
-20 6 -25 6 -5 0 -9 16 -9 35 0 31 -3 35 -26 35 -14 0 -23 -4 -20 -8 2 -4 1
-14 -4 -21 -6 -10 -12 -6 -24 17 -21 41 -21 122 0 122 1 0 33 -13 72 -30z"></path>
<path d="M5811 4004 c0 -11 3 -14 6 -6 3 7 2 16 -1 19 -3 4 -6 -2 -5 -13z"></path>
<path d="M1930 4485 c-17 -20 -5 -62 20 -70 44 -14 80 41 48 73 -17 17 -53 15
-68 -3z"></path>
<path d="M4456 4357 c-11 -8 -19 -28 -20 -55 -3 -52 -7 -57 -32 -33 -36 33
-62 43 -84 31 -26 -14 -25 -40 1 -74 l20 -26 -25 -10 c-38 -14 -36 -60 4 -94
30 -25 46 -29 144 -40 48 -6 76 -20 76 -37 0 -5 -9 -8 -21 -6 -12 1 -26 -6
-33 -16 -9 -15 -6 -22 17 -43 23 -19 39 -24 86 -24 50 0 61 -4 74 -22 9 -13
34 -43 56 -68 23 -25 58 -66 78 -91 45 -55 67 -71 88 -63 19 8 19 28 0 44 -9
7 -59 64 -111 126 l-95 113 15 30 c22 42 21 154 -1 192 -37 62 -103 41 -103
-31 0 -21 7 -57 15 -80 21 -60 19 -69 -10 -35 -15 18 -23 38 -20 50 3 11 0 66
-6 123 -9 74 -17 110 -31 127 -21 27 -54 32 -82 12z m54 -141 c0 -64 -6 -56
-14 19 -4 41 -3 55 4 45 5 -8 10 -37 10 -64z m-70 -31 c20 -24 5 -28 -21 -6
-19 16 -20 20 -8 21 9 0 22 -7 29 -15z"></path>
<path d="M3418 4333 c-62 -4 -65 -7 -46 -48 9 -20 8 -31 -2 -50 -17 -32 -9
-40 29 -27 21 8 39 7 60 -1 38 -14 47 -5 32 32 -11 24 -10 33 4 55 17 26 13
47 -8 44 -7 -1 -38 -3 -69 -5z"></path>
<path d="M3935 4140 c-14 -22 -25 -44 -25 -50 0 -5 -4 -10 -10 -10 -5 0 -10 5
-10 12 0 21 -51 78 -70 78 -23 0 -50 -47 -50 -87 l0 -27 -37 36 c-76 72 -103
69 -103 -14 0 -54 -7 -58 -39 -24 -13 14 -36 30 -53 37 -40 16 -50 1 -45 -68
l3 -51 -51 29 c-71 40 -85 39 -85 -10 0 -22 4 -51 10 -65 l9 -25 -41 15 c-22
8 -53 14 -69 14 -37 0 -38 -19 -5 -84 18 -35 20 -46 9 -42 -8 3 -39 9 -69 12
-64 8 -75 -5 -49 -59 9 -19 15 -43 13 -53 -2 -14 9 -19 64 -29 l67 -11 48 65
c58 77 152 158 230 196 100 49 176 65 306 65 101 0 130 -4 195 -26 187 -62
316 -180 414 -377 l29 -58 32 21 c18 11 52 32 77 46 43 23 80 78 64 93 -3 3
-39 5 -79 5 l-74 -1 23 31 c13 17 28 46 34 64 10 30 9 34 -14 44 -19 9 -36 8
-75 -4 -50 -16 -50 -16 -61 7 -7 17 -7 33 1 56 6 17 11 45 11 60 0 26 -3 29
-32 29 -18 0 -52 -9 -75 -19 -23 -11 -44 -17 -47 -13 -3 3 -6 28 -6 56 0 70
-10 83 -48 67 -17 -7 -38 -21 -48 -32 -26 -29 -34 -23 -34 25 0 90 -27 99 -95
32 l-44 -44 -6 41 c-8 50 -30 87 -50 87 -8 0 -26 -18 -40 -40z"></path>
<path d="M1052 4147 l-22 -23 23 -22 c29 -27 38 -27 58 1 16 21 15 24 -1 45
-23 28 -31 28 -58 -1z"></path>
<path d="M6672 4158 c-18 -18 -14 -56 7 -68 36 -19 69 38 39 68 -7 7 -17 12
-23 12 -6 0 -16 -5 -23 -12z"></path>
<path d="M4823 4144 c-3 -9 -3 -54 0 -100 9 -125 61 -218 162 -291 48 -35 55
-37 180 -49 118 -11 238 -31 290 -50 13 -4 7 4 -15 23 l-34 30 39 18 c21 11
69 48 106 84 59 58 70 74 88 135 13 42 21 96 21 142 l0 74 -415 0 c-371 0
-416 -2 -422 -16z m154 -56 c6 -7 18 -36 27 -64 37 -112 137 -184 259 -184
129 0 230 73 265 195 16 52 21 60 43 60 23 0 24 -3 24 -60 -1 -130 -105 -248
-243 -275 -43 -8 -69 -6 -140 11 -101 24 -154 52 -206 109 -61 67 -112 190
-89 213 11 12 50 8 60 -5z m498 2 c3 -5 1 -10 -5 -10 -6 0 -8 -5 -5 -11 4 -6
1 -10 -6 -8 -42 5 -61 -1 -56 -20 8 -34 -8 -44 -27 -17 -11 17 -26 26 -43 26
-24 0 -25 -2 -18 -37 12 -59 11 -96 -1 -100 -8 -3 -14 16 -19 49 -9 74 -14 88
-31 88 -18 0 -31 -31 -39 -92 -10 -79 -29 -59 -21 22 6 65 5 70 -13 70 -11 0
-31 -15 -46 -32 l-26 -33 3 30 c3 25 -1 31 -22 33 -26 4 -60 29 -60 44 0 12
427 10 435 -2z"></path>
<path d="M1280 3945 c-16 -19 1 -65 24 -65 16 0 46 26 46 40 0 13 -30 40 -44
40 -8 0 -19 -7 -26 -15z"></path>
<path d="M1062 3898 c-7 -7 -12 -18 -12 -25 0 -7 -10 -18 -22 -24 l-22 -12 22
-15 c12 -8 22 -23 22 -33 0 -12 7 -19 20 -19 13 0 20 7 20 19 0 10 10 26 23
35 l22 16 -22 16 c-13 9 -23 22 -23 30 0 19 -15 25 -28 12z"></path>
<path d="M6680 3890 c0 -5 -10 -19 -22 -30 -21 -19 -21 -23 -7 -33 9 -7 18
-21 20 -31 5 -26 28 -32 35 -9 4 10 16 26 28 35 l21 17 -22 16 c-13 9 -23 23
-23 31 0 8 -7 14 -15 14 -8 0 -15 -4 -15 -10z"></path>
<path d="M3895 3810 c-15 -17 -16 -24 -7 -45 17 -36 59 -34 73 3 20 51 -29 82
-66 42z"></path>
<path d="M3776 3804 c-31 -31 -13 -74 31 -74 31 0 50 39 34 69 -14 25 -43 27
-65 5z"></path>
<path d="M4017 3782 c-35 -39 -7 -88 41 -71 36 14 25 89 -13 89 -7 0 -19 -8
-28 -18z"></path>
<path d="M3660 3760 c-17 -33 -5 -70 24 -70 13 0 29 6 35 14 12 15 5 66 -9 66
-5 0 -15 3 -23 6 -10 3 -20 -3 -27 -16z"></path>
<path d="M4115 3720 c-22 -24 -14 -47 20 -56 26 -7 55 9 55 31 0 14 -32 45
-47 45 -5 0 -18 -9 -28 -20z"></path>
<path d="M3555 3694 c-20 -21 -16 -58 8 -62 10 -2 29 4 43 13 l26 17 -23 24
c-27 28 -32 29 -54 8z"></path>
<path d="M4202 3678 c-13 -13 2 -38 23 -38 18 0 28 32 13 42 -17 10 -22 10
-36 -4z"></path>
<path d="M4293 3678 c0 -7 -3 -20 -7 -28 -4 -10 8 -24 41 -45 27 -16 51 -34
55 -39 4 -6 10 -8 13 -4 8 8 -14 50 -31 61 -8 4 -14 13 -14 18 0 11 -39 48
-51 49 -3 0 -6 -6 -6 -12z"></path>
<path d="M2855 3579 c-80 -20 -150 -40 -170 -49 -107 -45 -193 -93 -259 -143
-99 -75 -193 -122 -270 -136 -34 -6 -185 -11 -345 -11 -157 0 -292 -4 -299 -9
-8 -5 -12 -21 -10 -37 3 -28 4 -29 63 -30 91 -1 148 -13 135 -29 -6 -7 -26
-15 -46 -18 -45 -7 -64 -23 -64 -52 0 -52 13 -54 325 -57 321 -3 357 1 481 57
39 18 119 64 177 103 188 125 269 152 458 152 81 0 137 -6 186 -19 79 -20 186
-77 180 -95 -2 -7 -29 -10 -78 -8 -91 3 -303 -15 -327 -27 -9 -5 -38 -18 -64
-28 -25 -9 -44 -21 -42 -25 3 -5 -3 -8 -13 -8 -20 0 -139 -90 -163 -124 -17
-25 -22 -49 -8 -40 10 7 59 10 208 15 l95 3 -70 6 -70 6 65 2 c46 2 61 5 50
12 -8 5 -28 10 -45 10 -22 0 -26 3 -15 9 8 6 17 8 21 5 4 -2 11 0 14 6 4 6 3
10 -2 9 -27 -5 -43 3 -43 21 0 11 5 20 11 20 5 0 7 5 4 10 -3 6 2 10 12 10 15
0 16 2 3 10 -8 5 -12 11 -10 13 6 6 72 10 138 8 53 -1 71 -16 30 -24 -14 -3
-9 -5 15 -6 20 0 37 -5 37 -10 0 -5 -7 -8 -16 -7 -9 0 -19 -6 -22 -14 -3 -11
-2 -12 8 -4 7 8 24 9 46 4 19 -5 52 -6 73 -3 50 7 94 -18 110 -63 7 -19 18
-34 24 -35 7 0 67 0 133 1 78 1 124 -3 129 -9 8 -14 145 -15 145 0 0 6 41 10
118 9 64 -1 159 -1 210 -1 l93 1 -17 23 c-9 12 -37 38 -62 57 -96 75 -175 114
-265 132 -43 8 -69 19 -84 36 -13 14 -23 29 -23 33 0 17 -152 159 -170 159 -6
0 -10 5 -10 10 0 6 -5 10 -11 10 -6 0 -25 11 -42 24 -65 50 -218 110 -322 127
-87 15 -293 19 -340 8z m250 -83 c12 -12 9 -16 -22 -31 -24 -11 -49 -15 -75
-12 -63 8 -204 -16 -260 -44 -10 -5 -23 -9 -29 -9 -11 0 -218 -135 -229 -149
-3 -4 -18 -15 -34 -25 -20 -13 -31 -15 -39 -7 -12 12 82 107 148 149 22 14 46
31 53 39 7 7 20 13 28 13 8 0 14 5 14 10 0 6 6 10 14 10 8 0 29 8 48 17 62 31
68 33 95 33 16 0 35 5 43 10 25 16 229 13 245 -4z m424 -123 c59 -35 90 -61
194 -167 126 -129 129 -136 37 -133 -39 2 -47 6 -67 37 -32 49 -139 156 -193
193 -25 17 -50 38 -57 46 -7 9 -13 13 -13 8 0 -12 -80 32 -80 45 0 20 130 0
179 -29z m-1369 -207 c30 -8 48 -16 40 -18 -8 -3 -31 -10 -51 -17 -49 -15
-276 -14 -314 3 l-30 13 50 15 c63 20 231 22 305 4z m1791 -76 c23 -13 25 -36
3 -44 -9 -3 -33 -6 -55 -6 -31 0 -39 4 -39 18 0 38 48 55 91 32z m-1051 -30
c0 -5 -4 -10 -10 -10 -5 0 -10 5 -10 10 0 6 5 10 10 10 6 0 10 -4 10 -10z"></path>
<path d="M4925 3579 c-22 -5 -60 -14 -85 -20 -24 -5 -60 -17 -80 -26 -74 -33
-140 -68 -140 -75 0 -5 -6 -8 -14 -8 -17 0 -30 -30 -18 -42 9 -9 62 12 62 25
0 4 6 7 14 7 8 0 27 6 43 14 47 23 97 36 142 36 47 0 105 -25 95 -41 -3 -6
-40 -26 -83 -45 -77 -36 -184 -103 -178 -113 1 -3 9 -18 16 -33 16 -31 28 -34
56 -14 25 17 123 50 196 66 36 8 105 11 195 8 177 -6 228 -25 414 -150 206
-139 255 -156 466 -160 144 -3 164 3 164 52 0 34 -28 60 -66 60 -16 0 -37 7
-47 14 -16 12 -8 15 70 21 97 8 123 17 123 43 0 34 -21 42 -111 42 -139 0
-268 21 -334 55 -31 16 -138 88 -159 108 -11 9 -23 17 -27 17 -4 0 -14 6 -22
14 -24 25 -125 86 -142 86 -8 0 -15 5 -15 10 0 6 -10 10 -23 10 -13 0 -28 5
-34 11 -6 6 -40 15 -74 20 -93 14 -357 20 -404 8z m370 -79 c3 -5 15 -10 25
-10 32 0 153 -68 205 -115 46 -41 46 -64 1 -30 -11 8 -26 15 -32 15 -7 0 -36
14 -64 30 -28 17 -59 30 -70 30 -10 0 -21 4 -24 9 -8 12 -105 24 -208 25 -70
1 -91 5 -105 19 -16 15 -16 19 -3 27 20 13 267 13 275 0z"></path>
<path d="M3825 3570 c-77 -7 -166 -29 -177 -44 -4 -6 2 -18 13 -27 20 -17 72
-17 129 0 39 12 156 13 177 2 10 -5 29 -12 43 -15 14 -3 34 -12 45 -20 18 -13
13 -15 -63 -21 -46 -4 -79 -11 -72 -15 6 -4 -20 -10 -58 -13 -109 -11 -111
-13 -61 -63 41 -41 46 -44 99 -44 144 -1 271 -41 385 -124 110 -80 188 -128
230 -143 25 -8 45 -18 46 -21 0 -4 2 -14 3 -22 3 -12 -9 -16 -53 -18 -31 -2
-60 -7 -65 -13 -6 -5 76 -9 220 -10 288 -1 328 0 332 12 2 5 10 9 18 9 9 0 13
-4 10 -8 -3 -5 1 -9 9 -9 8 0 12 4 9 8 -3 6 50 6 125 0 29 -2 -2 -16 -52 -23
-36 -5 -27 -5 28 -2 44 3 82 9 83 15 2 5 8 9 13 9 6 0 7 -4 4 -10 -7 -11 75
-12 143 -2 l43 7 -58 58 c-69 68 -115 100 -174 123 -24 9 -53 20 -64 25 -55
23 -357 40 -369 20 -3 -4 6 -31 20 -60 30 -59 24 -75 -31 -85 -30 -6 -39 -2
-84 40 -28 26 -51 53 -51 60 0 8 -4 14 -9 14 -5 0 -11 8 -15 18 -17 50 -185
226 -255 266 -9 5 -23 17 -33 25 -19 18 -128 62 -208 84 -67 19 -181 26 -275
17z m500 -220 c8 -13 -25 -13 -45 0 -12 8 -9 10 12 10 15 0 30 -4 33 -10z m72
-46 c-3 -3 -12 -4 -19 -1 -8 3 -5 6 6 6 11 1 17 -2 13 -5z m788 -185 c29 -1
29 -2 -10 -14 l-40 -13 40 -2 c22 -1 49 -5 60 -10 17 -7 14 -9 -15 -10 -19 -1
-46 -2 -60 -2 -15 0 -8 -4 18 -10 56 -14 54 -28 -5 -28 -59 0 -52 -8 10 -11
45 -3 60 -12 35 -22 -7 -2 -56 -5 -108 -6 -52 -1 -105 -4 -116 -7 -12 -3 -25
-1 -28 5 -5 7 4 11 23 11 22 0 31 5 31 16 0 10 6 14 15 10 8 -3 25 -1 37 4 19
7 16 9 -19 9 -32 1 -43 -3 -46 -16 -3 -13 -6 -10 -12 11 -6 23 -4 32 11 43 10
7 23 12 30 9 6 -2 17 0 25 6 10 7 0 8 -31 3 -43 -6 -44 -5 -22 10 12 9 25 14
30 12 4 -3 16 -1 27 4 11 5 36 6 55 4 19 -3 49 -5 65 -6z m-215 -79 c-8 -5
-19 -10 -25 -10 -5 0 -3 5 5 10 8 5 20 10 25 10 6 0 3 -5 -5 -10z m285 0 c3
-5 1 -10 -4 -10 -6 0 -11 5 -11 10 0 6 2 10 4 10 3 0 8 -4 11 -10z"></path>
<path d="M5048 3063 c7 -3 16 -2 19 1 4 3 -2 6 -13 5 -11 0 -14 -3 -6 -6z"></path>
<path d="M1057 3544 c-3 -3 -3 -12 -1 -19 3 -7 1 -16 -5 -20 -16 -9 -14 -25 3
-25 8 0 16 -7 20 -15 6 -17 36 -21 36 -5 0 6 12 15 27 21 20 7 23 13 15 21 -7
7 -12 20 -12 30 0 21 -11 23 -28 6 -9 -9 -15 -9 -24 0 -13 13 -22 15 -31 6z"></path>
<path d="M6639 3548 c-9 -35 -7 -68 6 -68 8 0 18 -8 24 -17 9 -17 10 -17 28 0
11 9 25 17 31 17 15 0 16 17 2 25 -5 3 -10 15 -10 26 0 17 -3 18 -21 8 -15 -8
-24 -8 -32 0 -10 10 -26 15 -28 9z"></path>
<path d="M6423 3504 c-8 -21 13 -42 28 -27 13 13 5 43 -11 43 -6 0 -13 -7 -17
-16z"></path>
<path d="M3878 3433 c7 -3 16 -2 19 1 4 3 -2 6 -13 5 -11 0 -14 -3 -6 -6z"></path>
<path d="M1110 3251 c0 -21 -6 -32 -20 -36 -26 -8 -26 -32 0 -40 12 -4 20 -14
19 -23 -4 -41 0 -45 25 -28 15 10 27 12 31 6 3 -6 13 -10 22 -10 12 0 14 7 10
30 -5 23 -2 32 13 40 27 15 25 28 -5 36 -28 7 -29 8 -15 35 8 14 7 19 -3 19
-7 0 -18 -5 -24 -11 -8 -8 -17 -8 -32 0 -19 11 -21 9 -21 -18z"></path>
<path d="M6593 3259 c4 -15 -1 -22 -19 -29 -29 -12 -30 -24 -3 -43 17 -12 19
-19 10 -35 -14 -26 1 -37 28 -23 14 8 22 7 31 -4 20 -24 31 -17 28 18 -2 27 1
33 20 35 27 4 29 28 2 37 -13 4 -20 15 -20 32 0 22 -3 24 -24 19 -14 -3 -28
-2 -31 4 -11 18 -27 10 -22 -11z"></path>
<path d="M5524 3057 c15 -19 26 -38 26 -43 0 -5 11 -22 25 -37 22 -22 34 -27
75 -27 28 0 50 3 50 8 -1 12 -137 102 -155 102 -10 0 -13 5 -9 12 4 7 3 8 -4
4 -7 -4 -12 -2 -12 3 0 6 -5 11 -11 11 -5 0 1 -15 15 -33z"></path>
<path d="M1251 3066 c-8 -9 -27 -16 -43 -16 -25 0 -27 -2 -18 -19 7 -13 7 -22
0 -26 -18 -11 -11 -27 10 -22 11 3 23 1 26 -4 10 -17 34 -9 34 11 0 11 7 23
15 26 18 7 19 24 2 48 -12 16 -14 16 -26 2z"></path>
<path d="M6493 3054 c-10 -21 -9 -26 3 -31 9 -3 20 -17 25 -30 8 -21 12 -23
24 -13 8 6 23 9 35 5 20 -6 29 13 13 29 -5 4 -8 13 -8 19 0 7 -10 13 -22 15
-12 2 -27 10 -33 18 -17 20 -23 18 -37 -12z"></path>
<path d="M3070 3066 c0 -2 8 -10 18 -17 15 -13 16 -12 3 4 -13 16 -21 21 -21
13z"></path>
<path d="M3136 3043 c-4 -4 -28 -10 -54 -14 l-47 -6 42 -2 c43 -1 72 -21 31
-21 -13 0 -30 -5 -38 -10 -13 -8 -13 -10 2 -10 9 0 19 -6 22 -12 5 -10 7 -10
12 0 3 6 12 12 20 12 8 0 14 5 14 11 0 6 7 17 15 26 8 8 13 19 10 24 -7 11
-19 12 -29 2z"></path>
<path d="M4355 3020 c3 -5 8 -10 11 -10 2 0 4 5 4 10 0 6 -5 10 -11 10 -5 0
-7 -4 -4 -10z"></path>
<path d="M4394 2995 c22 -17 40 -20 31 -6 -3 5 5 12 17 14 13 2 3 5 -22 5 -42
1 -44 0 -26 -13z"></path>
<path d="M3018 2983 c6 -2 18 -2 25 0 6 3 1 5 -13 5 -14 0 -19 -2 -12 -5z"></path>
<path d="M2480 2970 c-24 -8 -24 -8 7 -9 17 -1 35 4 38 9 7 11 -9 11 -45 0z"></path>
<path d="M3206 2936 c-13 -31 -19 -34 -82 -46 -37 -7 -113 -33 -168 -57 l-101
-44 -90 7 c-78 5 -98 3 -149 -16 -67 -26 -127 -75 -150 -124 -20 -42 -21 -116
-2 -160 14 -34 14 -34 -34 -84 -57 -59 -85 -131 -78 -203 13 -130 158 -206
316 -165 97 25 161 63 244 146 95 94 145 189 156 296 6 52 16 84 43 130 20 33
44 85 54 115 33 101 44 119 76 119 33 0 48 22 29 45 -7 8 -10 22 -6 30 19 50
-37 61 -58 11z m-97 -123 c-32 -36 -40 -44 -66 -66 -21 -19 -22 -18 -37 11
-19 36 -10 47 56 67 66 21 75 19 47 -12z m-12 -127 c-28 -60 -42 -69 -52 -35
-5 16 2 30 31 60 21 21 40 37 42 34 2 -2 -7 -29 -21 -59z m-283 45 c10 -15
-52 -60 -92 -66 -50 -8 -113 -36 -106 -46 3 -5 -1 -6 -8 -4 -8 3 -31 -13 -53
-35 -21 -22 -43 -40 -47 -40 -18 0 -6 69 18 107 27 41 64 69 112 83 37 11 170
12 176 1z m136 -5 c0 -24 -69 -119 -118 -164 -47 -42 -155 -102 -185 -102 -9
0 -19 -4 -22 -10 -10 -16 -42 -12 -49 6 -8 20 15 58 47 78 12 8 49 22 82 31
53 15 69 27 136 96 71 74 109 97 109 65z m-403 -332 c15 -20 31 -27 66 -31 40
-5 45 -8 35 -20 -10 -13 -8 -15 12 -13 58 5 76 0 76 -19 0 -16 -3 -17 -14 -9
-10 9 -17 7 -30 -5 -15 -16 -15 -17 2 -17 15 0 16 -2 2 -15 -8 -8 -21 -15 -28
-15 -7 0 -25 -6 -40 -14 -31 -16 -98 -24 -115 -13 -6 4 -14 3 -18 -3 -4 -7
-13 -7 -26 0 -25 14 -36 -9 -19 -40 17 -32 5 -35 -19 -4 -44 56 -12 177 60
228 31 21 34 21 56 -10z"></path>
<path d="M1940 2927 c-14 -7 -32 -27 -40 -44 -16 -35 -38 -41 -87 -22 -39 15
-115 15 -152 -1 -49 -20 -37 -30 38 -30 86 0 126 -13 116 -38 -31 -74 -9 -110
149 -246 187 -160 221 -196 236 -250 18 -64 36 -59 44 12 3 31 8 83 12 114 5
41 2 72 -10 107 -22 68 -21 71 19 71 42 0 54 19 31 52 -9 12 -16 29 -16 36 0
20 -82 123 -137 170 -84 74 -149 96 -203 69z m144 -79 c50 -38 108 -110 104
-129 -2 -8 2 -13 9 -12 8 2 10 -4 6 -14 -6 -15 -7 -15 -18 1 -7 9 -18 16 -26
16 -11 0 -11 2 1 10 13 8 11 11 -7 16 -13 4 -23 12 -23 19 0 13 -28 30 -43 26
-5 -1 -25 11 -45 27 -20 16 -50 33 -66 39 -40 12 -43 29 -9 41 34 11 60 2 117
-40z m-109 -91 c70 -56 84 -70 79 -79 -3 -4 -1 -8 5 -8 17 0 82 -73 77 -87 -3
-7 0 -12 6 -10 6 1 13 -4 15 -11 8 -22 -47 -5 -72 22 -13 15 -29 26 -35 26 -5
0 -10 7 -10 15 0 9 -16 23 -35 32 -19 9 -35 21 -35 26 0 5 -10 7 -21 4 -17 -4
-19 -3 -10 6 17 17 13 27 -10 27 -13 0 -18 4 -13 11 5 9 -1 10 -19 5 -22 -5
-25 -3 -20 11 4 11 3 14 -5 9 -13 -8 -17 16 -5 27 17 18 70 5 108 -26z m170
-217 c3 -5 1 -10 -4 -10 -6 0 -11 5 -11 10 0 6 2 10 4 10 3 0 8 -4 11 -10z
m23 -75 c-3 -3 -9 2 -12 12 -6 14 -5 15 5 6 7 -7 10 -15 7 -18z"></path>
<path d="M2247 2903 c-4 -3 -7 -16 -7 -29 0 -20 17 -34 41 -34 15 0 28 43 17
58 -11 13 -40 16 -51 5z"></path>
<path d="M1313 2863 c-17 -36 -21 -38 -70 -41 -29 -2 -53 -6 -53 -10 0 -3 16
-22 35 -42 35 -36 36 -37 25 -85 -6 -26 -9 -50 -6 -52 3 -3 24 5 48 17 l43 21
45 -20 c52 -23 60 -14 41 41 -11 30 -9 34 29 73 22 23 37 44 34 48 -4 4 -29 7
-56 7 -49 0 -50 1 -65 40 -9 22 -19 40 -24 40 -4 0 -16 -17 -26 -37z"></path>
<path d="M6417 2860 c-15 -39 -16 -40 -66 -40 -62 0 -67 -16 -15 -57 l35 -28
-11 -49 c-6 -27 -8 -51 -6 -54 3 -2 21 5 41 17 45 26 51 26 100 1 46 -24 53
-15 37 43 -9 33 -7 38 29 73 21 20 36 41 33 46 -3 4 -27 8 -54 8 -46 0 -50 2
-71 40 -13 22 -26 40 -29 40 -4 0 -14 -18 -23 -40z"></path>
<path d="M5850 2881 c-51 -11 -111 -45 -147 -81 l-32 -33 -45 27 c-28 16 -59
26 -84 26 -32 0 -45 6 -65 30 -25 29 -46 37 -60 23 -4 -3 11 -26 33 -49 25
-28 40 -53 40 -69 0 -35 15 -62 58 -107 l36 -38 -18 -36 c-53 -113 -34 -254
50 -353 14 -17 35 -36 46 -42 19 -10 19 -10 2 23 -54 105 -58 248 -8 331 10
18 14 17 65 -15 30 -19 73 -42 97 -51 52 -21 186 -34 195 -20 8 12 -166 199
-217 234 -20 13 -36 27 -36 32 0 15 66 66 120 94 45 23 69 28 127 29 40 0 75
3 78 6 3 3 -14 12 -37 21 -52 20 -150 29 -198 18z m-243 -131 c61 -35 68 -44
48 -60 -13 -11 -20 -11 -40 0 -35 19 -86 71 -79 81 8 13 14 11 71 -21z m181
-124 c57 -44 111 -96 99 -96 -13 0 -65 26 -120 62 -32 20 -65 34 -73 31 -8 -3
-14 -2 -14 3 0 11 32 44 42 44 5 0 35 -20 66 -44z"></path>
<path d="M3435 2839 c-4 -5 1 -19 10 -29 25 -27 13 -70 -19 -70 -15 0 -26 7
-29 20 -6 24 -30 26 -47 5 -30 -36 38 -93 94 -79 58 14 89 110 48 147 -21 19
-48 22 -57 6z"></path>
<path d="M3773 2800 c-17 -10 -37 -28 -42 -39 -15 -26 -13 -101 2 -128 8 -15
11 -59 7 -147 -5 -120 -6 -126 -30 -143 -57 -39 -111 -103 -141 -168 -87 -185
-18 -459 141 -560 176 -111 390 -53 498 137 115 201 65 459 -113 585 -30 21
-30 22 -35 145 -4 88 -2 132 7 155 29 73 11 138 -47 168 -45 23 -206 21 -247
-5z m201 -59 c4 -5 -7 -12 -24 -16 -16 -4 -30 -11 -30 -16 0 -5 -11 -9 -24 -9
-31 0 -76 -36 -76 -62 0 -16 -3 -18 -14 -9 -22 19 -28 71 -11 98 14 21 23 23
95 23 43 0 81 -4 84 -9z m-5 -180 c22 -6 22 -7 7 -21 -11 -8 -50 -15 -102 -18
-79 -4 -84 -3 -84 16 0 11 6 23 13 25 18 8 138 6 166 -2z m-117 -116 c9 -4 13
-17 11 -38 -3 -27 -2 -29 7 -12 9 16 9 14 5 -14 -6 -42 25 -101 66 -125 19
-11 29 -25 29 -41 0 -19 7 -27 33 -34 22 -6 25 -9 11 -10 -11 -1 -29 -10 -39
-21 -18 -19 -17 -20 3 -20 11 0 29 -3 39 -7 16 -6 15 -8 -7 -13 -35 -8 -32
-34 5 -39 29 -4 29 -4 6 -10 -33 -9 -38 -29 -10 -40 l24 -8 -23 -7 c-30 -10
-23 -29 14 -37 l29 -7 -27 -1 c-38 -2 -58 -11 -58 -27 0 -8 10 -14 25 -14 14
0 25 -4 25 -10 0 -5 -18 -10 -41 -10 -33 0 -40 -3 -37 -17 2 -13 16 -20 53
-24 l50 -6 -41 -1 c-42 -2 -62 -20 -42 -40 6 -6 1 -12 -16 -16 -17 -4 -26 -13
-26 -26 0 -16 9 -20 58 -23 48 -3 44 -4 -25 -5 -57 -1 -86 -6 -97 -17 -8 -8
-28 -15 -45 -15 -17 0 -31 -4 -31 -10 0 -22 -33 -8 -75 31 -107 99 -144 288
-81 423 25 55 47 80 119 139 46 38 47 39 47 97 0 57 1 60 24 60 13 0 31 -2 38
-5z"></path>
<path d="M3755 2221 c-54 -11 -32 -26 43 -29 50 -2 79 1 89 10 14 11 12 14
-13 19 -37 8 -81 8 -119 0z"></path>
<path d="M3718 2162 c-44 -5 -35 -32 10 -32 38 0 71 14 56 22 -19 10 -40 13
-66 10z"></path>
<path d="M3675 2100 c-9 -15 -7 -16 41 -23 41 -5 75 5 62 19 -13 13 -95 17
-103 4z"></path>
<path d="M3660 2045 c0 -12 13 -15 63 -15 57 1 60 2 43 15 -27 20 -106 20
-106 0z"></path>
<path d="M3649 2008 c-9 -31 -6 -33 65 -30 64 3 69 5 51 18 -15 11 -113 21
-116 12z"></path>
<path d="M3658 1954 c-22 -22 -6 -34 45 -34 52 0 88 13 74 26 -10 11 -111 17
-119 8z"></path>
<path d="M3698 1903 c-25 -3 -38 -9 -38 -19 0 -12 12 -14 55 -12 30 2 55 4 55
6 0 5 -28 32 -32 30 -2 -1 -20 -3 -40 -5z"></path>
<path d="M3680 1836 c0 -12 11 -15 50 -15 65 2 62 23 -3 27 -37 2 -47 0 -47
-12z"></path>
<path d="M3696 1785 c-7 -20 12 -27 48 -17 46 13 44 32 -2 32 -27 0 -42 -5
-46 -15z"></path>
<path d="M4315 2800 c-4 -11 -15 -20 -26 -20 -25 0 -35 -25 -19 -45 7 -8 10
-26 6 -39 -6 -23 -4 -24 55 -23 57 0 60 1 55 22 -4 14 0 28 9 35 22 18 19 50
-5 50 -11 0 -25 9 -32 20 -7 11 -18 20 -25 20 -6 0 -15 -9 -18 -20z"></path>
<path d="M4740 2796 c-30 -13 -71 -30 -90 -38 -22 -10 -42 -13 -55 -7 -59 23
-91 -7 -37 -35 16 -8 47 -39 70 -68 59 -77 104 -113 175 -138 l28 -10 -26 -43
c-77 -132 19 -297 173 -297 46 0 51 -2 77 -40 86 -125 257 -112 327 23 17 34
20 53 15 109 -5 60 -3 71 19 104 14 20 22 39 19 42 -3 3 -25 -1 -48 -10 -39
-14 -45 -14 -77 3 -19 11 -51 19 -71 19 -28 0 -41 6 -53 25 -22 34 -20 41 14
55 17 7 41 26 54 42 30 38 52 32 101 -27 58 -72 74 -58 27 22 -16 27 -32 66
-36 88 -29 152 -180 243 -316 189 -37 -15 -43 -15 -80 0 -59 23 -144 20 -210
-8z m200 -41 c22 -14 -21 -47 -53 -41 -15 3 -26 2 -24 -2 8 -12 -86 -13 -115
-1 -60 25 18 61 118 55 34 -2 67 -7 74 -11z m279 -23 c37 -30 78 -89 68 -98
-9 -9 -73 25 -98 52 -31 33 -108 34 -140 2 -31 -34 -43 -69 -27 -83 34 -32
123 -44 158 -23 10 7 22 9 26 6 10 -11 -7 -29 -42 -44 -30 -13 -39 -12 -84 6
-28 11 -68 20 -88 20 -35 0 -38 2 -40 31 -5 62 53 146 113 162 45 13 118 -2
154 -31z m-158 -238 c33 -17 79 -70 79 -92 0 -13 -4 -12 -23 6 -26 24 -87 52
-116 52 -32 0 -88 -31 -101 -56 -27 -49 18 -134 71 -134 10 0 21 -4 24 -10 10
-17 -58 -11 -84 6 -12 9 -31 30 -42 48 -10 17 -19 25 -19 18 0 -7 -4 -10 -10
-7 -14 9 -12 60 4 98 34 82 133 114 217 71z m18 -128 c11 -13 10 -17 -4 -22
-20 -8 -61 28 -51 45 8 13 35 1 55 -23z m207 -15 c72 -44 80 -137 18 -199 -33
-33 -37 -34 -91 -30 -52 5 -60 9 -95 48 -43 49 -48 79 -18 128 41 67 124 91
186 53z"></path>
<path d="M5191 2309 c-36 -14 -63 -50 -57 -74 3 -11 6 -25 6 -31 0 -24 53 -64
83 -64 46 0 87 43 87 92 0 64 -59 102 -119 77z"></path>
<path d="M2365 2780 c-8 -14 3 -30 21 -30 8 0 14 9 14 20 0 21 -24 28 -35 10z"></path>
<path d="M6030 2646 c0 -15 24 -28 34 -19 13 14 5 33 -14 33 -11 0 -20 -6 -20
-14z"></path>
<path d="M4470 2591 c0 -12 6 -21 16 -21 9 0 14 7 12 17 -5 25 -28 28 -28 4z"></path>
<path d="M3290 2584 c0 -8 5 -12 10 -9 6 3 10 10 10 16 0 5 -4 9 -10 9 -5 0
-10 -7 -10 -16z"></path>
<path d="M3402 2578 c-6 -6 -12 -35 -12 -63 0 -42 5 -56 25 -75 30 -28 32 -46
6 -60 -28 -14 -28 -14 -34 31 -9 68 -66 111 -97 74 -16 -20 10 -92 45 -125 23
-22 24 -25 8 -42 -24 -26 -33 -22 -33 15 -1 28 -7 36 -55 65 -63 38 -108 40
-113 6 -4 -29 32 -68 96 -103 l53 -28 -63 -45 c-157 -110 -244 -162 -275 -165
-56 -4 -69 -17 -87 -90 -34 -128 -34 -121 5 -85 21 19 45 32 61 32 14 0 34 3
43 6 20 8 45 55 45 86 0 24 2 25 138 112 40 26 83 55 95 66 11 11 25 19 31 17
10 -3 34 -82 43 -144 l5 -42 -48 15 c-123 38 -234 -38 -234 -160 0 -44 1 -46
21 -36 21 12 23 16 33 63 4 15 19 42 35 60 25 27 36 32 73 32 42 0 86 -24 71
-39 -4 -3 -6 -34 -5 -67 2 -74 -7 -93 -58 -119 l-40 -20 -21 21 c-25 25 -46
19 -55 -17 -9 -34 3 -53 52 -82 55 -32 145 -27 202 10 45 30 92 113 92 164 0
40 -22 94 -49 118 -30 27 -26 50 14 95 19 21 35 41 35 45 0 10 -48 7 -55 -4
-14 -22 -32 -7 -43 36 -7 26 -11 49 -8 51 2 2 21 0 43 -6 54 -15 78 -14 103 7
19 15 21 22 12 38 -11 21 -70 44 -111 44 -18 0 -20 3 -10 19 21 32 52 44 108
42 38 -2 58 3 72 15 25 22 24 53 -1 62 -17 6 -14 11 25 36 65 40 76 106 19
106 -20 0 -40 -14 -74 -50 -26 -27 -50 -50 -53 -50 -4 0 -7 19 -7 43 0 71 -36
117 -68 85z m-452 -578 c0 -5 -4 -10 -10 -10 -5 0 -10 5 -10 10 0 6 5 10 10
10 6 0 10 -4 10 -10z"></path>
<path d="M4336 2574 c-10 -10 -16 -33 -16 -65 0 -27 -3 -49 -6 -49 -4 0 -29
20 -55 45 -50 46 -78 55 -98 31 -18 -22 6 -62 56 -95 37 -25 40 -29 23 -34
-28 -7 -25 -43 5 -63 18 -12 39 -15 70 -12 38 5 48 1 81 -26 l38 -31 -48 -7
c-88 -12 -127 -63 -68 -87 22 -9 40 -9 76 0 26 6 49 9 53 6 7 -7 -4 -67 -16
-85 -6 -10 -13 -11 -34 -1 -14 6 -33 9 -43 5 -14 -5 -10 -14 25 -51 46 -50 50
-64 21 -90 -11 -10 -28 -42 -37 -72 -14 -46 -15 -59 -4 -91 38 -110 103 -157
210 -150 89 5 143 39 177 111 13 29 24 71 24 95 0 125 -138 223 -253 178 -56
-22 -64 -11 -43 62 9 32 16 70 16 85 0 15 4 27 10 27 5 0 71 -41 145 -91 127
-85 135 -92 135 -123 0 -43 35 -76 80 -76 21 0 43 -8 57 -22 32 -30 39 -17 19
35 -9 23 -16 53 -16 65 0 36 -44 73 -82 70 -27 -1 -60 17 -185 102 -84 57
-150 106 -148 110 2 3 22 13 45 20 45 15 110 79 110 109 0 31 -35 35 -85 11
-70 -34 -95 -58 -95 -91 0 -27 -2 -28 -20 -17 -25 16 -25 30 0 53 10 9 27 37
36 62 16 40 16 46 1 60 -21 21 -61 10 -75 -21 -6 -13 -14 -40 -17 -60 -8 -39
-16 -44 -36 -20 -10 13 -10 20 3 42 9 15 19 48 23 73 11 73 -21 112 -59 73z
m294 -590 c108 -43 107 -216 -2 -238 -36 -7 -99 27 -119 66 l-12 23 23 -20 23
-20 -14 23 c-8 12 -19 22 -26 22 -8 0 -13 14 -13 36 0 31 3 35 20 29 11 -4 20
-2 20 4 0 6 -4 11 -9 11 -5 0 -11 10 -15 23 -4 15 0 27 15 40 26 21 57 22 109
1z m-153 -96 c-3 -7 -5 -2 -5 12 0 14 2 19 5 13 2 -7 2 -19 0 -25z"></path>
<path d="M4635 1921 c-6 -5 -21 -11 -35 -13 -31 -4 -55 -46 -47 -79 13 -50 92
-58 112 -12 14 33 13 42 -7 68 -18 23 -18 24 -1 18 16 -6 16 -5 4 10 -16 20
-14 19 -26 8z"></path>
<path d="M1773 2554 c-7 -19 11 -39 26 -30 16 10 13 33 -4 40 -9 3 -18 -1 -22
-10z"></path>
<path d="M3200 2515 c0 -8 5 -15 10 -15 6 0 10 7 10 15 0 8 -4 15 -10 15 -5 0
-10 -7 -10 -15z"></path>
<path d="M4560 2515 c0 -8 5 -15 10 -15 6 0 10 7 10 15 0 8 -4 15 -10 15 -5 0
-10 -7 -10 -15z"></path>
<path d="M1407 2489 l-26 -29 25 -27 24 -26 25 27 c14 15 25 29 25 31 0 2 -10
15 -23 29 l-23 25 -27 -30z"></path>
<path d="M6327 2491 l-27 -30 25 -25 c27 -27 45 -33 45 -16 0 5 10 18 22 29
18 17 19 21 6 26 -9 4 -18 15 -21 26 -7 26 -17 24 -50 -10z"></path>
<path d="M1880 2436 c0 -21 21 -31 30 -15 5 7 6 17 4 21 -9 14 -34 9 -34 -6z"></path>
<path d="M5743 2355 c-7 -20 2 -29 21 -22 9 4 13 13 10 22 -8 19 -23 19 -31 0z"></path>
<path d="M1620 2287 c-31 -29 -129 -119 -218 -200 -89 -82 -162 -154 -162
-161 0 -6 18 -29 40 -51 l39 -38 86 79 c92 84 146 126 153 119 3 -2 -15 -62
-38 -132 -59 -175 -62 -193 -40 -193 9 0 68 20 130 44 112 45 170 62 170 52 0
-3 -40 -54 -90 -113 -49 -59 -90 -110 -90 -114 0 -8 83 -79 93 -79 5 0 319
365 365 424 l23 30 -52 52 -51 51 -51 -19 c-29 -11 -70 -28 -92 -38 -72 -32
-135 -53 -141 -47 -3 3 11 56 31 119 21 62 41 125 45 140 7 23 2 35 -33 78
-22 27 -45 50 -51 50 -6 -1 -36 -24 -66 -53z"></path>
<path d="M2040 2306 c0 -15 24 -28 34 -19 13 14 5 33 -14 33 -11 0 -20 -6 -20
-14z"></path>
<path d="M3088 2289 c-26 -15 -22 -48 7 -61 32 -14 94 0 109 25 9 15 7 21 -8
33 -23 16 -83 18 -108 3z"></path>
<path d="M4603 2293 c-20 -7 -15 -51 6 -63 46 -24 121 -5 121 30 0 11 -9 24
-19 30 -20 10 -86 12 -108 3z"></path>
<path d="M6115 2226 c-73 -33 -118 -123 -96 -195 13 -44 60 -97 98 -112 58
-22 132 -4 188 45 36 31 58 33 85 6 27 -27 25 -42 -9 -79 -27 -29 -49 -36 -93
-32 -11 1 -29 -16 -47 -46 l-30 -48 27 -12 c63 -28 175 -6 229 46 62 59 85
177 47 242 -54 91 -182 107 -263 33 -21 -19 -47 -34 -58 -34 -22 0 -43 18 -43
37 0 23 47 63 73 63 14 0 28 7 31 16 8 20 -3 67 -18 76 -18 12 -88 8 -121 -6z"></path>
<path d="M5452 2063 c2 -10 10 -18 18 -18 22 0 18 29 -3 33 -14 3 -18 -1 -15
-15z"></path>
<path d="M5829 1937 c-48 -40 -103 -84 -122 -100 l-36 -27 132 -157 c73 -87
149 -176 169 -198 36 -39 37 -40 63 -24 50 30 245 190 245 201 0 12 -70 78
-83 78 -4 0 -41 -28 -82 -62 l-75 -61 -25 23 c-36 34 -38 30 55 110 l24 21
-39 39 c-22 21 -44 39 -49 40 -4 0 -30 -16 -56 -35 -56 -41 -61 -42 -78 -14
-12 19 -11 24 10 46 13 13 44 41 71 61 26 20 47 43 47 51 0 23 -49 81 -68 80
-9 0 -56 -33 -103 -72z"></path>
<path d="M5027 1942 c-24 -26 -21 -49 7 -67 45 -30 91 16 61 61 -19 29 -46 31
-68 6z"></path>
<path d="M2680 1931 c-16 -31 4 -63 37 -59 34 4 52 32 37 56 -16 26 -60 28
-74 3z"></path>
<path d="M3175 1850 c-22 -24 -10 -42 20 -30 18 8 18 9 -5 10 l-25 1 23 10
c13 5 20 13 17 19 -8 13 -9 13 -30 -10z"></path>
<path d="M2974 1806 c-8 -21 3 -36 27 -36 15 0 20 6 17 22 -4 27 -35 37 -44
14z"></path>
<path d="M2155 1780 c-11 -10 -105 -84 -210 -163 -104 -79 -190 -149 -190
-155 0 -12 79 -72 96 -72 6 0 27 14 46 30 l35 31 51 -31 c29 -17 59 -34 66
-39 13 -8 13 -17 3 -61 -7 -29 -11 -54 -10 -55 24 -19 118 -63 122 -56 3 4 22
84 42 177 19 93 42 198 50 234 29 126 29 122 -16 153 -48 32 -59 33 -85 7z
m-35 -239 c-13 -57 -31 -65 -70 -33 l-23 19 48 36 c26 21 50 35 53 33 2 -3 -1
-28 -8 -55z"></path>
<path d="M5525 1724 c-55 -35 -114 -71 -132 -80 -17 -8 -39 -24 -48 -34 -18
-20 -19 -19 34 -99 7 -12 17 -9 54 12 25 15 48 27 50 27 3 0 24 -30 48 -67 99
-158 172 -263 183 -263 24 1 107 61 100 73 -4 7 -52 84 -107 171 l-101 159 24
16 c14 9 37 27 53 41 l28 25 -36 43 c-20 23 -40 42 -43 41 -4 0 -52 -30 -107
-65z"></path>
<path d="M2860 1730 c0 -15 5 -20 18 -18 9 2 17 10 17 18 0 8 -8 16 -17 18
-13 2 -18 -3 -18 -18z"></path>
<path d="M4905 1741 c-8 -15 3 -31 21 -31 9 0 14 7 12 17 -4 20 -24 28 -33 14z"></path>
<path d="M3472 1708 c-35 -35 15 -99 53 -68 30 25 12 80 -25 80 -9 0 -21 -5
-28 -12z"></path>
<path d="M4260 1700 c-26 -48 25 -89 63 -51 18 17 19 24 9 46 -14 31 -56 34
-72 5z"></path>
<path d="M2328 1415 c-60 -125 -107 -232 -104 -240 4 -11 245 -135 262 -135
11 0 55 84 50 96 -3 7 -33 27 -68 45 -35 17 -68 36 -75 41 -9 7 9 52 72 179
47 93 85 173 85 177 0 9 -91 62 -105 62 -3 0 -56 -101 -117 -225z"></path>
<path d="M5218 1564 c-27 -13 -48 -29 -48 -34 0 -9 8 -24 65 -125 21 -38 134
-250 163 -307 7 -16 17 -28 20 -28 4 0 31 10 59 22 55 24 63 39 39 73 -7 11
-38 67 -69 125 -88 167 -161 293 -172 296 -5 2 -31 -8 -57 -22z"></path>
<path d="M2724 1442 c-32 -71 -114 -276 -145 -360 -19 -54 -20 -65 -8 -72 22
-14 299 -113 303 -109 2 2 13 23 25 47 18 34 20 47 10 58 -6 8 -16 14 -21 14
-10 0 -40 12 -126 51 -48 21 -48 27 -11 101 11 20 27 59 38 85 10 26 30 73 43
103 34 75 38 89 30 94 -5 3 -31 14 -60 25 l-52 21 -26 -58z"></path>
<path d="M4950 1449 c-30 -11 -75 -27 -100 -35 -24 -8 -48 -18 -54 -24 -5 -5
3 -43 22 -97 17 -48 54 -153 82 -233 27 -80 52 -150 54 -157 9 -24 257 70 299
115 48 51 60 118 31 175 -22 41 -48 64 -84 72 -26 6 -28 9 -20 37 13 43 2 82
-34 124 -28 33 -38 37 -87 41 -38 2 -70 -3 -109 -18z m108 -121 c23 -23 14
-54 -23 -71 -51 -24 -63 -21 -73 16 -8 27 -6 35 12 49 24 20 67 23 84 6z m102
-182 c11 -30 -6 -55 -53 -77 -58 -26 -65 -24 -78 21 -11 36 -10 42 7 55 25 19
74 33 97 27 10 -3 22 -14 27 -26z"></path>
<path d="M3117 1336 c-95 -34 -157 -132 -157 -249 0 -84 26 -143 86 -195 123
-109 308 -70 387 82 16 32 21 59 20 121 0 88 -16 130 -75 192 -55 58 -174 80
-261 49z m153 -135 c101 -71 54 -241 -65 -241 -126 0 -158 196 -42 254 36 18
70 14 107 -13z"></path>
<path d="M4554 1331 c-47 -12 -52 -18 -59 -69 -3 -26 -10 -67 -15 -92 -26
-127 -60 -330 -60 -359 0 -24 4 -32 14 -28 7 3 35 9 62 13 56 8 64 15 64 66 0
43 3 46 78 64 79 19 77 19 105 -33 13 -27 29 -48 33 -48 5 1 35 7 67 14 51 13
57 17 51 35 -7 21 -120 204 -225 364 -55 83 -59 86 -115 73z m91 -263 c17 -30
14 -33 -34 -43 l-34 -7 6 38 c4 22 7 50 7 64 l0 25 21 -25 c11 -14 26 -37 34
-52z"></path>
<path d="M3529 1272 c-5 -14 -14 -119 -20 -235 -6 -116 -13 -215 -15 -219 -13
-21 20 -38 71 -38 62 0 65 5 65 90 0 37 5 62 14 69 16 13 18 11 89 -99 l42
-65 73 -3 c39 -2 72 0 72 3 0 3 -26 45 -59 93 l-59 88 29 16 c92 53 92 212 1
274 -36 25 -119 42 -221 47 -69 3 -74 2 -82 -21z m230 -127 c19 -19 17 -66 -5
-82 -19 -14 -55 -17 -91 -7 -19 5 -23 13 -23 48 0 23 6 48 12 54 16 16 86 6
107 -13z"></path>
<path d="M4107 1275 c-21 -8 -50 -24 -64 -35 -62 -49 -109 -159 -100 -236 9
-87 75 -182 149 -217 80 -38 225 -11 265 50 15 23 15 25 -17 58 -37 38 -55 42
-84 20 -32 -25 -100 -19 -135 11 -92 77 -42 234 75 234 25 0 55 -5 67 -11 19
-11 25 -7 54 27 19 21 32 45 31 53 -2 8 -23 25 -48 37 -52 27 -133 31 -193 9z"></path>
</g>
</svg><style>@media (prefers-color-scheme: light) { :root { filter: none; } }
</style></svg></svg></g></svg>